<svg width="1280" height="720" xmlns="http://www.w3.org/2000/svg" xmlns:xlink="http://www.w3.org/1999/xlink" overflow="hidden"><g><rect x="0" y="0" width="1280" height="720" fill="#191919"/><text fill="#FFFFFF" font-family="DengXian,DengXian_MSFontService,sans-serif" font-weight="700" font-size="24" transform="translate(515.583 62)">Rewards</text><text fill="#FFFFFF" font-family="DengXian,DengXian_MSFontService,sans-serif" font-weight="700" font-size="24" transform="translate(614.416 62)">Allocation</text><rect x="164.5" y="407.5" width="83" height="46" stroke="#5736A8" stroke-linejoin="round" stroke-miterlimit="10" fill="#2D3049"/><text fill="#FFFFFF" font-family="Microsoft YaHei,Microsoft YaHei_MSFontService,sans-serif" font-weight="400" font-size="14.6667" transform="translate(182.259 426)">Minter</text><text fill="#FFFFFF" font-family="Microsoft YaHei,Microsoft YaHei_MSFontService,sans-serif" font-weight="400" font-size="14.6667" transform="translate(177.839 444)">rewards</text><rect x="651.5" y="404.5" width="106" height="61" stroke="#5736A8" stroke-linejoin="round" stroke-miterlimit="10" fill="#2D3049"/><text fill="#FFFFFF" font-family="Microsoft YaHei,Microsoft YaHei_MSFontService,sans-serif" font-weight="400" font-size="14" transform="translate(660.588 422)">DAO</text><text fill="#FFFFFF" font-family="Calibri,Calibri_MSFontService,sans-serif" font-weight="400" font-size="14" transform="translate(660.588 439)">Governance</text><text fill="#FFFFFF" font-family="Calibri,Calibri_MSFontService,sans-serif" font-weight="400" font-size="14" transform="translate(660.588 456)">Fund</text><rect x="779.5" y="404.5" width="96" height="46" stroke="#5736A8" stroke-linejoin="round" stroke-miterlimit="10" fill="#2D3049"/><text fill="#FFFFFF" font-family="Calibri,Calibri_MSFontService,sans-serif" font-weight="400" font-size="14" transform="translate(788.361 422)">Spoilage</text><text fill="#FFFFFF" font-family="Calibri,Calibri_MSFontService,sans-serif" font-weight="400" font-size="14" transform="translate(788.361 439)">Witness Fund</text><rect x="899.5" y="404.5" width="96" height="61" stroke="#5736A8" stroke-linejoin="round" stroke-miterlimit="10" fill="#2D3049"/><text fill="#FFFFFF" font-family="Calibri,Calibri_MSFontService,sans-serif" font-weight="400" font-size="14" transform="translate(908.314 422)">Ecological</text><text fill="#FFFFFF" font-family="Calibri,Calibri_MSFontService,sans-serif" font-weight="400" font-size="14" transform="translate(908.314 439)">Development</text><text fill="#FFFFFF" font-family="Calibri,Calibri_MSFontService,sans-serif" font-weight="400" font-size="14" transform="translate(908.314 456)">Fund</text><path d="M0-0.666667 40.4978-0.666667 40.4978 164.574 39.1645 164.574 39.1645 0 39.8312 0.666667 0 0.666667ZM43.8312 163.24 39.8312 171.24 35.8312 163.24Z" fill="#8497B0" transform="matrix(1.83697e-16 1 1 -1.83697e-16 620.5 165.5)"/><path d="M620.9 165.5 620.9 205.998 436.167 205.998 436.167 204.665 620.233 204.665 619.566 205.331 619.566 165.5ZM437.5 209.331 429.5 205.331 437.5 201.331Z" fill="#8497B0"/><path d="M0-0.666667 35.1538-0.666667 35.1538 119.707 34.4871 119.041 92.4256 119.041 92.4256 120.374 33.8204 120.374 33.8204 0 34.4871 0.666667 0 0.666667ZM91.0923 115.707 99.0923 119.707 91.0923 123.707Z" fill="#8497B0" transform="matrix(1.83697e-16 1 1 -1.83697e-16 827.5 221.5)"/><path d="M828.487 221.5 828.487 256.994 704.5 256.994 705.167 256.327 705.167 312.722 703.833 312.722 703.833 255.66 827.82 255.66 827.154 256.327 827.154 221.5ZM708.5 311.389 704.5 319.389 700.5 311.389Z" fill="#8497B0"/><path d="M828.167 221.5 828.167 313.926 826.834 313.926 826.833 221.5ZM831.501 312.592 827.501 320.592 823.501 312.592Z" fill="#8497B0"/><path d="M0.666667-6.5853e-06 0.667126 46.4754-0.666208 46.4754-0.666667 6.5853e-06ZM4.00045 45.142 0.000524934 53.142-3.99955 45.1421Z" fill="#8497B0" transform="matrix(-1 0 0 1 704.501 351.5)"/><path d="M0.666659-0.00316544 0.881619 45.2685-0.451699 45.2748-0.666659 0.00316544ZM4.20858 43.9194 0.246614 51.9383-3.79133 43.9573Z" fill="#8497B0" transform="matrix(-1 0 0 1 827.747 352.5)"/><path d="M0.666667-6.73793e-06 0.667124 45.2716-0.666209 45.2716-0.666667 6.73793e-06ZM4.00044 43.9382 0.000524934 51.9383-3.99956 43.9383Z" fill="#8497B0" transform="matrix(-1 0 0 1 947.501 352.5)"/><rect x="1019.5" y="404.5" width="95.9999" height="46" stroke="#5736A8" stroke-linejoin="round" stroke-miterlimit="10" fill="#2D3049"/><text fill="#FFFFFF" font-family="Calibri,Calibri_MSFontService,sans-serif" font-weight="400" font-size="14" transform="translate(1028.27 422)">Legal Advisor</text><text fill="#FFFFFF" font-family="Calibri,Calibri_MSFontService,sans-serif" font-weight="400" font-size="14" transform="translate(1028.27 439)">Fund</text><path d="M0.666667-6.95174e-06 0.667122 43.6741-0.666211 43.6741-0.666667 6.95174e-06ZM4.00044 42.3407 0.000524934 50.3408-3.99956 42.3408Z" fill="#8497B0" transform="matrix(-1 0 0 1 1067.5 354.5)"/><path d="M0-0.666667 35.0119-0.666667 35.0119 239.66 34.3453 238.993 94.0231 238.993 94.0231 240.327 33.6786 240.327 33.6786 0 34.3453 0.666667 0 0.666667ZM92.6898 235.66 100.69 239.66 92.6898 243.66Z" fill="#8497B0" transform="matrix(1.83697e-16 1 1 -1.83697e-16 827.5 221.5)"/><path d="M533.5 123.834C533.5 119.231 537.231 115.5 541.834 115.5L699.167 115.5C703.769 115.5 707.5 119.231 707.5 123.834L707.5 157.167C707.5 161.769 703.769 165.5 699.167 165.5L541.834 165.5C537.231 165.5 533.5 161.769 533.5 157.167Z" stroke="#8497B0" stroke-width="1.33333" stroke-miterlimit="8" fill="#5736A8" fill-rule="evenodd"/><text fill="#FFFFFF" font-family="Microsoft YaHei,Microsoft YaHei_MSFontService,sans-serif" font-weight="400" font-size="16" transform="translate(576.667 136)">Transaction</text><text fill="#FFFFFF" font-family="Microsoft YaHei,Microsoft YaHei_MSFontService,sans-serif" font-weight="400" font-size="16" transform="translate(590.227 156)">rewards</text><path d="M358.5 194.834C358.5 191.888 360.888 189.5 363.834 189.5L424.167 189.5C427.112 189.5 429.5 191.888 429.5 194.834L429.5 216.167C429.5 219.112 427.112 221.5 424.167 221.5L363.834 221.5C360.888 221.5 358.5 219.112 358.5 216.167Z" stroke="#2F528F" stroke-width="1.33333" stroke-miterlimit="8" fill="#6E1680" fill-rule="evenodd"/><text fill="#FFFFFF" font-family="Microsoft YaHei,Microsoft YaHei_MSFontService,sans-serif" font-weight="400" font-size="16" transform="translate(377.11 210)">97%</text><path d="M791.5 194.834C791.5 191.888 793.888 189.5 796.833 189.5L858.167 189.5C861.112 189.5 863.5 191.888 863.5 194.834L863.5 216.167C863.5 219.112 861.112 221.5 858.167 221.5L796.833 221.5C793.888 221.5 791.5 219.112 791.5 216.167Z" stroke="#2F528F" stroke-width="1.33333" stroke-miterlimit="8" fill="#6E1680" fill-rule="evenodd"/><text fill="#FFFFFF" font-family="Microsoft YaHei,Microsoft YaHei_MSFontService,sans-serif" font-weight="400" font-size="16" transform="translate(815.564 210)">3%</text><path d="M668.5 324.834C668.5 321.888 670.888 319.5 673.833 319.5L735.167 319.5C738.112 319.5 740.5 321.888 740.5 324.834L740.5 346.167C740.5 349.112 738.112 351.5 735.167 351.5L673.833 351.5C670.888 351.5 668.5 349.112 668.5 346.167Z" stroke="#2F528F" stroke-width="1.33333" stroke-miterlimit="8" fill="#533E86" fill-rule="evenodd"/><text fill="#FFFFFF" font-family="Microsoft YaHei,Microsoft YaHei_MSFontService,sans-serif" font-weight="400" font-size="16" transform="translate(687.577 340)">40%</text><path d="M791.5 325.834C791.5 322.888 793.888 320.5 796.833 320.5L858.167 320.5C861.112 320.5 863.5 322.888 863.5 325.834L863.5 347.167C863.5 350.112 861.112 352.5 858.167 352.5L796.833 352.5C793.888 352.5 791.5 350.112 791.5 347.167Z" stroke="#2F528F" stroke-width="1.33333" stroke-miterlimit="8" fill="#533E86" fill-rule="evenodd"/><text fill="#FFFFFF" font-family="Microsoft YaHei,Microsoft YaHei_MSFontService,sans-serif" font-weight="400" font-size="16" transform="translate(810.898 342)">30%</text><path d="M911.5 325.834C911.5 322.888 913.888 320.5 916.833 320.5L978.167 320.5C981.112 320.5 983.5 322.888 983.5 325.834L983.5 347.167C983.5 350.112 981.112 352.5 978.167 352.5L916.833 352.5C913.888 352.5 911.5 350.112 911.5 347.167Z" stroke="#2F528F" stroke-width="1.33333" stroke-miterlimit="8" fill="#533E86" fill-rule="evenodd"/><text fill="#FFFFFF" font-family="Microsoft YaHei,Microsoft YaHei_MSFontService,sans-serif" font-weight="400" font-size="16" transform="translate(930.604 342)">20%</text><path d="M1031.5 327.834C1031.5 324.888 1033.89 322.5 1036.83 322.5L1098.17 322.5C1101.11 322.5 1103.5 324.888 1103.5 327.834L1103.5 349.167C1103.5 352.112 1101.11 354.5 1098.17 354.5L1036.83 354.5C1033.89 354.5 1031.5 352.112 1031.5 349.167Z" stroke="#2F528F" stroke-width="1.33333" stroke-miterlimit="8" fill="#533E86" fill-rule="evenodd"/><text fill="#FFFFFF" font-family="Microsoft YaHei,Microsoft YaHei_MSFontService,sans-serif" font-weight="400" font-size="16" transform="translate(1050.56 343)">10%</text><path d="M160.5 317C160.5 312.306 164.306 308.5 169 308.5L244 308.5C248.694 308.5 252.5 312.306 252.5 317L252.5 351C252.5 355.694 248.694 359.5 244 359.5L169 359.5C164.306 359.5 160.5 355.694 160.5 351Z" stroke="#2F528F" stroke-width="1.33333" stroke-miterlimit="8" fill="#533E86" fill-rule="evenodd"/><text fill="#FFFFFF" font-family="Microsoft YaHei,Microsoft YaHei_MSFontService,sans-serif" font-weight="400" font-size="16" transform="translate(189.532 329)">95%</text><text fill="#FFFFFF" font-family="Microsoft YaHei,Microsoft YaHei_MSFontService,sans-serif" font-weight="400" font-size="16" transform="translate(179.452 349)">(+</text><text fill="#FFFFFF" font-family="Microsoft YaHei,Microsoft YaHei_MSFontService,sans-serif" font-weight="400" font-size="16" transform="translate(196.618 349)">-</text><text fill="#FFFFFF" font-family="Microsoft YaHei,Microsoft YaHei_MSFontService,sans-serif" font-weight="400" font-size="16" transform="translate(203.618 349)">2%)</text><rect x="487.5" y="439.5" width="93" height="28" stroke="#5736A8" stroke-linejoin="round" stroke-miterlimit="10" fill="#2D3049"/><text fill="#FFFFFF" font-family="Microsoft YaHei,Microsoft YaHei_MSFontService,sans-serif" font-weight="400" font-size="14.6667" transform="translate(496.464 458)">Completer</text><path d="M0.666663-0.00209996 0.921674 80.9548-0.411652 80.959-0.666663 0.00209996ZM4.25079 79.611 0.27601 87.6235-3.74917 79.6362Z" fill="#8497B0" transform="matrix(-1 0 0 1 533.776 352.5)"/><path d="M498.5 325.834C498.5 322.888 500.888 320.5 503.834 320.5L565.167 320.5C568.112 320.5 570.5 322.888 570.5 325.834L570.5 347.167C570.5 350.112 568.112 352.5 565.167 352.5L503.834 352.5C500.888 352.5 498.5 350.112 498.5 347.167Z" stroke="#2F528F" stroke-width="1.33333" stroke-miterlimit="8" fill="#533E86" fill-rule="evenodd"/><text fill="#FFFFFF" font-family="Microsoft YaHei,Microsoft YaHei_MSFontService,sans-serif" font-weight="400" font-size="16" transform="translate(521.907 341)">1%</text><rect x="358.5" y="439.5" width="71" height="27" stroke="#5736A8" stroke-linejoin="round" stroke-miterlimit="10" fill="#2D3049"/><text fill="#FFFFFF" font-family="Microsoft YaHei,Microsoft YaHei_MSFontService,sans-serif" font-weight="400" font-size="14.6667" transform="translate(374.277 458)">Seller</text><path d="M395.167 350.5 395.167 432.344 393.833 432.344 393.833 350.5ZM398.5 431.01 394.5 439.01 390.5 431.01Z" fill="#8497B0"/><path d="M358.5 323.834C358.5 320.888 360.888 318.5 363.834 318.5L424.167 318.5C427.112 318.5 429.5 320.888 429.5 323.834L429.5 345.167C429.5 348.112 427.112 350.5 424.167 350.5L363.834 350.5C360.888 350.5 358.5 348.112 358.5 345.167Z" stroke="#2F528F" stroke-width="1.33333" stroke-miterlimit="8" fill="#533E86" fill-rule="evenodd"/><text fill="#FFFFFF" font-family="Microsoft YaHei,Microsoft YaHei_MSFontService,sans-serif" font-weight="400" font-size="16" transform="translate(381.777 340)">1%</text><path d="M394.742 221.5 394.742 257.184 206.5 257.184 207.167 256.517 207.167 301.809 205.833 301.809 205.833 255.851 394.075 255.851 393.409 256.517 393.409 221.5ZM210.5 300.476 206.5 308.476 202.5 300.476Z" fill="#8497B0"/><path d="M0-0.666667 35.839-0.666667 35.839 140.13 35.1724 139.464 91.9135 139.464 91.9135 140.797 34.5057 140.797 34.5057 0 35.1724 0.666667 0 0.666667ZM90.5802 136.13 98.5802 140.13 90.5802 144.13Z" fill="#8497B0" transform="matrix(1.83697e-16 1 1 -1.83697e-16 394.5 221.5)"/><path d="M0-0.666667 49.1643-0.666667 49.1643 0.000524934 48.4976-0.666142 90.3285-0.666142 90.3285 0.667192 47.831 0.667192 47.831 0 48.4976 0.666667 0 0.666667ZM88.9952-3.99948 96.9952 0.000524934 88.9952 4.00052Z" fill="#8497B0" transform="matrix(1.83697e-16 1 1 -1.83697e-16 394.5 221.5)"/><path d="M642 315.655C642 298.172 656.172 284 673.655 284L1093.35 284C1110.83 284 1125 298.172 1125 315.655L1125 511.345C1125 528.828 1110.83 543 1093.35 543L673.655 543C656.172 543 642 528.828 642 511.345Z" stroke="#532CE2" stroke-width="2" stroke-miterlimit="8" stroke-dasharray="2 2" fill="none" fill-rule="evenodd"/><text fill="#FFFFFF" font-family="DengXian,DengXian_MSFontService,sans-serif" font-weight="400" font-size="14.6667" transform="translate(677.653 504)">DAO can adjust the allocation of funds through voting governance.</text><text fill="#FFFFFF" font-family="DengXian,DengXian_MSFontService,sans-serif" font-weight="400" font-size="14.6667" transform="translate(882.041 211)">Service fee</text><path d="M207.529 359.5 207.529 384.286 206.5 384.286 207.167 383.62 207.167 401.072 205.833 401.072 205.833 382.953 206.863 382.953 206.196 383.62 206.196 359.5ZM210.5 399.739 206.5 407.739 202.5 399.739Z" fill="#8497B0"/><path d="M297 314.644C297 292.197 315.197 274 337.644 274L1097.36 274C1119.8 274 1138 292.197 1138 314.644L1138 518.356C1138 540.803 1119.8 559 1097.36 559L337.644 559C315.197 559 297 540.803 297 518.356Z" stroke="#526590" stroke-width="2" stroke-miterlimit="8" stroke-dasharray="8 6" fill="none" fill-rule="evenodd"/><path d="M343.5 395C343.5 387.544 349.544 381.5 357 381.5L430 381.5C437.456 381.5 443.5 387.544 443.5 395L443.5 395C443.5 402.456 437.456 408.5 430 408.5L357 408.5C349.544 408.5 343.5 402.456 343.5 395Z" stroke="#8497B0" stroke-width="1.33333" stroke-miterlimit="8" fill="#2D3049" fill-rule="evenodd"/><text fill="#FFFFFF" font-family="Microsoft YaHei,Microsoft YaHei_MSFontService,sans-serif" font-weight="400" font-size="13.3333" transform="translate(368.255 400)">Sell Box</text><path d="M488.5 400.5C488.5 390.007 497.007 381.5 507.5 381.5L562.5 381.5C572.994 381.5 581.5 390.007 581.5 400.5L581.5 400.5C581.5 410.994 572.993 419.5 562.5 419.5L507.5 419.5C497.007 419.5 488.5 410.993 488.5 400.5Z" stroke="#8497B0" stroke-width="1.33333" stroke-miterlimit="8" fill="#2D3049" fill-rule="evenodd"/><text fill="#FFFFFF" font-family="Microsoft YaHei,Microsoft YaHei_MSFontService,sans-serif" font-weight="400" font-size="13.3333" transform="translate(503.239 397)">Complete</text><text fill="#FFFFFF" font-family="Microsoft YaHei,Microsoft YaHei_MSFontService,sans-serif" font-weight="400" font-size="13.3333" transform="translate(515.653 413)">Order</text><path d="M533.5 639.834C533.5 635.231 537.231 631.5 541.834 631.5L699.167 631.5C703.769 631.5 707.5 635.231 707.5 639.834L707.5 673.167C707.5 677.769 703.769 681.5 699.167 681.5L541.834 681.5C537.231 681.5 533.5 677.769 533.5 673.167Z" stroke="#8497B0" stroke-width="1.33333" stroke-miterlimit="8" fill="#5736A8" fill-rule="evenodd"/><text fill="#FFFFFF" font-family="Microsoft YaHei,Microsoft YaHei_MSFontService,sans-serif" font-weight="400" font-size="16" transform="translate(548.667 652)">Confidentiality Fee</text><text fill="#FFFFFF" font-family="Microsoft YaHei,Microsoft YaHei_MSFontService,sans-serif" font-weight="400" font-size="16" transform="translate(590.227 672)">rewards</text><path d="M619.833 631.6 619.833 597.236 883.81 597.236 883.144 597.902 883.144 550.167 884.477 550.167 884.477 598.569 620.5 598.569 621.167 597.902 621.167 631.6ZM879.81 551.5 883.81 543.5 887.81 551.5Z" fill="#8497B0"/><path d="M0-0.666667 34.3924-0.666667 34.3924 414.578 33.7257 413.911 171.844 413.911 171.844 415.244 33.0591 415.244 33.0591 0 33.7257 0.666667 0 0.666667ZM170.51 410.578 178.51 414.578 170.51 418.578Z" fill="#8497B0" transform="matrix(-1.83697e-16 -1 -1 1.83697e-16 621.078 632.01)"/><path d="M167.5 518.834C167.5 515.888 169.888 513.5 172.834 513.5L233.167 513.5C236.112 513.5 238.5 515.888 238.5 518.834L238.5 540.167C238.5 543.112 236.112 545.5 233.167 545.5L172.834 545.5C169.888 545.5 167.5 543.112 167.5 540.167Z" stroke="#2F528F" stroke-width="1.33333" stroke-miterlimit="8" fill="#6E1680" fill-rule="evenodd"/><text fill="#FFFFFF" font-family="Microsoft YaHei,Microsoft YaHei_MSFontService,sans-serif" font-weight="400" font-size="16" transform="translate(186.113 535)">97%</text><path d="M848.5 583.834C848.5 580.888 850.888 578.5 853.833 578.5L914.167 578.5C917.112 578.5 919.5 580.888 919.5 583.834L919.5 605.167C919.5 608.112 917.112 610.5 914.167 610.5L853.833 610.5C850.888 610.5 848.5 608.112 848.5 605.167Z" stroke="#2F528F" stroke-width="1.33333" stroke-miterlimit="8" fill="#6E1680" fill-rule="evenodd"/><text fill="#FFFFFF" font-family="Microsoft YaHei,Microsoft YaHei_MSFontService,sans-serif" font-weight="400" font-size="16" transform="translate(871.727 599)">3%</text><text fill="#FFFFFF" font-family="DengXian,DengXian_MSFontService,sans-serif" font-weight="400" font-size="14.6667" transform="translate(408.677 541)">Only official token</text><path d="M313 316.658C313 298.621 327.621 284 345.658 284L582.342 284C600.379 284 615 298.621 615 316.658L615 480.342C615 498.379 600.379 513 582.342 513L345.658 513C327.621 513 313 498.379 313 480.342Z" stroke="#843C0C" stroke-width="2" stroke-miterlimit="8" stroke-dasharray="8 6" fill="none" fill-rule="evenodd"/><text fill="#F2F2F2" font-family="DengXian,DengXian_MSFontService,sans-serif" font-weight="400" font-size="14.6667" transform="translate(418.371 245)">Helper Rewards</text></g></svg>