<svg width="1280" height="720" xmlns="http://www.w3.org/2000/svg" xmlns:xlink="http://www.w3.org/1999/xlink" overflow="hidden"><g><rect x="0" y="0" width="1280" height="720" fill="#191919"/><text fill="#FFFFFF" font-family="DengXian,DengXian_MSFontService,sans-serif" font-weight="700" font-size="24" transform="translate(479.076 79)">Truth Box Status Process map</text><rect x="917" y="569" width="47" height="26" fill="#222A35"/><text fill="#D6DCE5" font-family="Microsoft YaHei,Microsoft YaHei_MSFontService,sans-serif" font-weight="400" font-size="13.3333" transform="translate(926.445 587)">No</text><rect x="814" y="569" width="47" height="26" fill="#222A35"/><text fill="#D6DCE5" font-family="Microsoft YaHei,Microsoft YaHei_MSFontService,sans-serif" font-weight="400" font-size="13.3333" transform="translate(823.328 587)">Pay</text><rect x="806" y="288" width="68" height="27" fill="#533E86"/><text fill="#FFFFFF" font-family="DengXian,DengXian_MSFontService,sans-serif" font-weight="400" font-size="14.6667" transform="translate(815.496 307)">Review</text><path d="M0-0.333333 17.1471-0.333333 17.1471 54.9566 16.8138 54.6233 26.9608 54.6233 26.9608 55.29 16.4804 55.29 16.4804 0 16.8138 0.333333 0 0.333333ZM25.6275 50.9566 33.6275 54.9566 25.6275 58.9566Z" fill="#8497B0" transform="matrix(1.83697e-16 1 1 -1.83697e-16 885.5 535.5)"/><path d="M885.994 535.5 885.994 552.647 837.5 552.647 837.833 552.314 837.833 562.461 837.167 562.461 837.167 551.98 885.66 551.98 885.327 552.314 885.327 535.5ZM841.5 561.127 837.5 569.127 833.5 561.127Z" fill="#8497B0"/><path d="M0-0.333333 130.119-0.333333 130.119 171.65 129.453 171.65 129.453 0 129.786 0.333333 0 0.333333ZM133.786 170.317 129.786 178.317 125.786 170.317Z" fill="#8497B0" transform="matrix(1 0 0 -1 964.5 581.817)"/><path d="M529.167 380.617 529.167 213.461 1093.83 213.461 1093.83 363.833 1093.16 363.833 1093.16 213.794 1093.5 214.128 529.5 214.128 529.833 213.794 529.833 380.617ZM1097.5 362.5 1093.5 370.5 1089.5 362.5Z" fill="#8497B0"/><path d="M0-0.333333 28.192-0.333333 28.192 89.0188 27.8587 88.6855 49.0506 88.6855 49.0506 89.3521 27.5254 89.3521 27.5254 0 27.8587 0.333333 0 0.333333ZM47.7173 85.0188 55.7173 89.0188 47.7173 93.0188Z" fill="#8497B0" transform="matrix(1 0 0 -1 185.5 335.519)"/><path d="M185.5 335.167 213.692 335.167 213.692 397.212 213.359 396.878 234.551 396.878 234.551 397.545 213.025 397.545 213.025 335.5 213.359 335.833 185.5 335.833ZM233.217 393.212 241.217 397.212 233.217 401.212Z" fill="#8497B0"/><path d="M0-0.333333 18.1071-0.333333 18.1071 67.7046 17.7737 67.3712 28.8807 67.3712 28.8807 68.0379 17.4404 68.0379 17.4404 0 17.7737 0.333333 0 0.333333ZM27.5474 63.7046 35.5474 67.7046 27.5474 71.7046Z" fill="#8497B0" transform="matrix(1 0 0 -1 325.5 397.205)"/><path d="M325.5 396.167 343.607 396.167 343.607 468.137 343.274 467.804 354.381 467.804 354.381 468.47 342.94 468.47 342.94 396.5 343.274 396.833 325.5 396.833ZM353.047 464.137 361.047 468.137 353.047 472.137Z" fill="#8497B0"/><path d="M0-0.333333 17.8468-0.333333 17.8468 29.8706 17.5135 29.5372 28.3603 29.5372 28.3603 30.2039 17.1802 30.2039 17.1802 0 17.5135 0.333333 0 0.333333ZM27.027 25.8706 35.027 29.8706 27.027 33.8705Z" fill="#8497B0" transform="matrix(1 0 0 -1 874.5 302.371)"/><path d="M874.5 301.167 892.347 301.167 892.347 333.35 892.014 333.016 902.86 333.016 902.86 333.683 891.68 333.683 891.68 301.5 892.014 301.833 874.5 301.833ZM901.527 329.35 909.527 333.35 901.527 337.35Z" fill="#8497B0"/><path d="M101.5 318.667C101.5 314.156 105.156 310.5 109.667 310.5L177.333 310.5C181.844 310.5 185.5 314.156 185.5 318.667L185.5 351.333C185.5 355.844 181.844 359.5 177.333 359.5L109.667 359.5C105.156 359.5 101.5 355.844 101.5 351.333Z" stroke="#8497B0" stroke-width="1.33333" stroke-miterlimit="8" fill="#251F35" fill-rule="evenodd"/><text fill="#FFFFFF" font-family="DengXian,DengXian_MSFontService,sans-serif" font-weight="400" font-size="16" transform="translate(130.199 331)">Box</text><text fill="#FFFFFF" font-family="DengXian,DengXian_MSFontService,sans-serif" font-weight="400" font-size="16" transform="translate(115.619 350)">(Create)</text><path d="M241.5 397C241.5 386.23 250.23 377.5 261 377.5L306 377.5C316.77 377.5 325.5 386.23 325.5 397L325.5 397C325.5 407.77 316.77 416.5 306 416.5L261 416.5C250.23 416.5 241.5 407.77 241.5 397Z" stroke="#2F528F" stroke-width="1.33333" stroke-miterlimit="8" fill="#BF9000" fill-rule="evenodd"/><text fill="#FFFFFF" font-family="DengXian,DengXian_MSFontService,sans-serif" font-weight="700" font-size="16" transform="translate(256.099 402)">Storing</text><path d="M360.5 329C360.5 320.44 367.44 313.5 376 313.5L429 313.5C437.561 313.5 444.5 320.44 444.5 329L444.5 329C444.5 337.561 437.56 344.5 429 344.5L376 344.5C367.44 344.5 360.5 337.56 360.5 329Z" stroke="#2F528F" stroke-width="1.33333" stroke-miterlimit="8" fill="#561043" fill-rule="evenodd"/><text fill="#FFFFFF" font-family="DengXian,DengXian_MSFontService,sans-serif" font-weight="700" font-size="16" transform="translate(377.669 334)">Selling</text><path d="M360.5 469C360.5 460.44 367.44 453.5 376 453.5L455 453.5C463.56 453.5 470.5 460.44 470.5 469L470.5 469C470.5 477.56 463.56 484.5 455 484.5L376 484.5C367.44 484.5 360.5 477.56 360.5 469Z" stroke="#2F528F" stroke-width="1.33333" stroke-miterlimit="8" fill="#561043" fill-rule="evenodd"/><text fill="#FFFFFF" font-family="DengXian,DengXian_MSFontService,sans-serif" font-weight="700" font-size="16" transform="translate(375.464 473)">Auctioning</text><path d="M444.5 329.167 466.785 329.167 466.785 397.561 466.452 397.228 481.737 397.228 481.737 397.895 466.119 397.895 466.119 329.5 466.452 329.833 444.5 329.833ZM480.404 393.561 488.404 397.561 480.404 401.561Z" fill="#8497B0"/><path d="M0-0.333333 9.07333-0.333333 9.07333 71.2801 8.74 70.9468 10.8133 70.9468 10.8133 71.6134 8.40667 71.6134 8.40667 0 8.74 0.333333 0 0.333333ZM9.48 67.2801 17.48 71.2801 9.48 75.2801Z" fill="#8497B0" transform="matrix(1 0 0 -1 470.5 468.78)"/><path d="M675.5 322C675.5 312.887 682.887 305.5 692 305.5L758 305.5C767.113 305.5 774.5 312.887 774.5 322L774.5 322C774.5 331.113 767.113 338.5 758 338.5L692 338.5C682.887 338.5 675.5 331.113 675.5 322Z" stroke="#8497B0" stroke-width="1.33333" stroke-miterlimit="8" fill="#843C0C" fill-rule="evenodd"/><text fill="#FFFFFF" font-family="DengXian,DengXian_MSFontService,sans-serif" font-weight="700" font-size="14.6667" transform="translate(690.047 327)">Refunding</text><path d="M806.5 519C806.5 509.887 813.887 502.5 823 502.5L949 502.5C958.113 502.5 965.5 509.887 965.5 519L965.5 519C965.5 528.113 958.113 535.5 949 535.5L823 535.5C813.887 535.5 806.5 528.113 806.5 519Z" stroke="#8497B0" stroke-width="1.33333" stroke-miterlimit="8" fill="#222A35" fill-rule="evenodd"/><text fill="#FFFFFF" font-family="Calibri,Calibri_MSFontService,sans-serif" font-weight="400" font-size="14.6667" transform="translate(830.559 524)">Confidentiality fee</text><path d="M615.5 397.5C615.5 388.111 623.111 380.5 632.5 380.5L664.5 380.5C673.889 380.5 681.5 388.111 681.5 397.5L681.5 397.5C681.5 406.889 673.889 414.5 664.5 414.5L632.5 414.5C623.111 414.5 615.5 406.889 615.5 397.5Z" stroke="#8497B0" stroke-width="1.33333" stroke-miterlimit="8" fill="#7F6000" fill-rule="evenodd"/><text fill="#FFFFFF" font-family="DengXian,DengXian_MSFontService,sans-serif" font-weight="700" font-size="14.6667" transform="translate(633.845 402)">Paid</text><path d="M679.5 476C679.5 466.887 686.887 459.5 696 459.5L759 459.5C768.113 459.5 775.5 466.887 775.5 476L775.5 476C775.5 485.113 768.113 492.5 759 492.5L696 492.5C686.887 492.5 679.5 485.113 679.5 476Z" stroke="#8497B0" stroke-width="1.33333" stroke-miterlimit="8" fill="#7030A0" fill-rule="evenodd"/><text fill="#FFFFFF" font-family="DengXian,DengXian_MSFontService,sans-serif" font-weight="700" font-size="14.6667" transform="translate(695.495 481)">InSecrecy</text><path d="M571.5 397.167 593.738 397.167 593.738 397.5 593.404 397.167 608.642 397.167 608.642 397.833 593.071 397.833 593.071 397.5 593.404 397.833 571.5 397.833ZM607.309 393.5 615.309 397.5 607.309 401.5Z" fill="#8497B0"/><path d="M648.167 380.053 648.167 321.167 668.797 321.167 668.797 321.833 648.5 321.833 648.833 321.5 648.833 380.053ZM667.464 317.5 675.464 321.5 667.464 325.5Z" fill="#8497B0"/><path d="M0-0.333333 62.3111-0.333333 62.3111 23.7349 61.6444 23.7349 61.6444 0 61.9777 0.333333 0 0.333333ZM65.9777 22.4016 61.9777 30.4016 57.9777 22.4016Z" fill="#8497B0" transform="matrix(1.83697e-16 1 1 -1.83697e-16 648.5 414.5)"/><path d="M666 468.834C666 453.462 678.462 441 693.834 441L974.166 441C989.538 441 1002 453.462 1002 468.834L1002 580.166C1002 595.538 989.538 608 974.166 608L693.834 608C678.462 608 666 595.538 666 580.166Z" stroke="#533E86" stroke-width="2" stroke-miterlimit="8" stroke-dasharray="8 6" fill="none" fill-rule="evenodd"/><path d="M1034.5 387C1034.5 377.887 1041.89 370.5 1051 370.5L1137 370.5C1146.11 370.5 1153.5 377.887 1153.5 387L1153.5 387C1153.5 396.113 1146.11 403.5 1137 403.5L1051 403.5C1041.89 403.5 1034.5 396.113 1034.5 387Z" stroke="#8497B0" stroke-width="1.33333" stroke-miterlimit="8" fill="#00B050" fill-rule="evenodd"/><text fill="#FFFFFF" font-family="DengXian,DengXian_MSFontService,sans-serif" font-weight="700" font-size="16" transform="translate(1057.97 392)">Published</text><path d="M0-0.333333 16.3472-0.333333 16.3472 20.0393 16.0139 19.7059 25.3612 19.7059 25.3612 20.3726 15.6806 20.3726 15.6806 0 16.0139 0.333333 0 0.333333ZM24.0278 16.0393 32.0278 20.0393 24.0278 24.0393Z" fill="#8497B0" transform="matrix(1 0 0 -1 774.5 321.539)"/><path d="M774.5 321.167 790.847 321.167 790.847 348.025 790.514 347.692 799.861 347.692 799.861 348.358 790.181 348.358 790.181 321.5 790.514 321.833 774.5 321.833ZM798.528 344.025 806.528 348.025 798.528 352.025Z" fill="#8497B0"/><path d="M241.5 246.5C241.5 237.111 249.111 229.5 258.5 229.5L332.5 229.5C341.889 229.5 349.5 237.111 349.5 246.5L349.5 246.5C349.5 255.889 341.889 263.5 332.5 263.5L258.5 263.5C249.111 263.5 241.5 255.889 241.5 246.5Z" stroke="#8497B0" stroke-width="1.33333" stroke-miterlimit="8" fill="#00B050" fill-rule="evenodd"/><text fill="#FFFFFF" font-family="DengXian,DengXian_MSFontService,sans-serif" font-weight="700" font-size="16" transform="translate(259.38 251)">Published</text><path d="M488.5 397.5C488.5 388.111 496.111 380.5 505.5 380.5L554.5 380.5C563.889 380.5 571.5 388.111 571.5 397.5L571.5 397.5C571.5 406.889 563.889 414.5 554.5 414.5L505.5 414.5C496.111 414.5 488.5 406.889 488.5 397.5Z" stroke="#8497B0" stroke-width="1.33333" stroke-miterlimit="8" fill="#222A35" fill-rule="evenodd"/><text fill="#FFFFFF" font-family="Calibri,Calibri_MSFontService,sans-serif" font-weight="400" font-size="14.6667" transform="translate(505.308 402)">Buy, Bid</text><rect x="501" y="200" width="84" height="28" fill="#533E86"/><text fill="#D6DCE5" font-family="DengXian,DengXian_MSFontService,sans-serif" font-weight="400" font-size="14.6667" transform="translate(513.569 219)">No buyer</text><path d="M666 267.834C666 255.775 675.775 246 687.834 246L980.166 246C992.225 246 1002 255.775 1002 267.834L1002 355.166C1002 367.225 992.225 377 980.166 377L687.834 377C675.775 377 666 367.225 666 355.166Z" stroke="#533E86" stroke-width="2" stroke-miterlimit="8" stroke-dasharray="8 6" fill="none" fill-rule="evenodd"/><path d="M0-0.333333 318.311-0.333333 318.311 65.4279 317.645 65.4279 317.645 0 317.978 0.333333 0 0.333333ZM321.978 64.0945 317.978 72.0945 313.978 64.0945Z" fill="#8497B0" transform="matrix(1 0 0 -1 775.5 475.595)"/><path d="M1002.5 312.167 1094.49 312.167 1094.49 364.211 1093.82 364.211 1093.82 312.5 1094.15 312.833 1002.5 312.833ZM1098.15 362.878 1094.15 370.878 1090.15 362.878Z" fill="#8497B0"/><path d="M806.5 349.5C806.5 341.768 812.768 335.5 820.5 335.5L869.5 335.5C877.232 335.5 883.5 341.768 883.5 349.5L883.5 349.5C883.5 357.232 877.232 363.5 869.5 363.5L820.5 363.5C812.768 363.5 806.5 357.232 806.5 349.5Z" stroke="#8497B0" stroke-width="1.33333" stroke-miterlimit="8" fill="#222A35" fill-rule="evenodd"/><text fill="#FFFFFF" font-family="Calibri,Calibri_MSFontService,sans-serif" font-weight="400" font-size="14.6667" transform="translate(824.993 354)">Cancel</text><path d="M912.5 273C912.5 265.544 918.544 259.5 926 259.5L971 259.5C978.456 259.5 984.5 265.544 984.5 273L984.5 273C984.5 280.456 978.456 286.5 971 286.5L926 286.5C918.544 286.5 912.5 280.456 912.5 273Z" stroke="#8497B0" stroke-width="1.33333" stroke-miterlimit="8" fill="#222A35" fill-rule="evenodd"/><text fill="#FFFFFF" font-family="Calibri,Calibri_MSFontService,sans-serif" font-weight="400" font-size="14.6667" transform="translate(930.45 278)">Agree</text><path d="M912.5 334.5C912.5 326.768 918.768 320.5 926.5 320.5L971.5 320.5C979.232 320.5 985.5 326.768 985.5 334.5L985.5 334.5C985.5 342.232 979.232 348.5 971.5 348.5L926.5 348.5C918.768 348.5 912.5 342.232 912.5 334.5Z" stroke="#8497B0" stroke-width="1.33333" stroke-miterlimit="8" fill="#222A35" fill-rule="evenodd"/><text fill="#FFFFFF" font-family="Calibri,Calibri_MSFontService,sans-serif" font-weight="400" font-size="14.6667" transform="translate(928.646 339)">Refuse</text></g></svg>