<svg width="907" height="378" xmlns="http://www.w3.org/2000/svg" xmlns:xlink="http://www.w3.org/1999/xlink" overflow="hidden"><defs><clipPath id="clip0"><rect x="0" y="0" width="907" height="378"/></clipPath></defs><g clip-path="url(#clip0)"><rect x="0" y="0" width="907" height="378.069" fill="#191919"/><path d="M540.5 139.485C540.5 133.431 545.407 128.524 551.46 128.524L624.54 128.524C630.593 128.524 635.5 133.431 635.5 139.485L635.5 149.568C635.5 155.622 630.593 160.529 624.54 160.529L551.46 160.529C545.407 160.529 540.5 155.622 540.5 149.568Z" stroke="#8497B0" stroke-width="1.33309" stroke-miterlimit="8" stroke-dasharray="10.6647 3.99926" fill="#843C0C" fill-rule="evenodd"/><text fill="#FFFFFF" font-family="Calibri,Calibri_MSFontService,sans-serif" font-weight="700" font-size="14" transform="matrix(1 0 0 1.00018 557.551 148)">Refunding</text><path d="M75.5 214.499C75.5 208.445 80.4069 203.537 86.4597 203.537L134.54 203.537C140.593 203.537 145.5 208.445 145.5 214.499L145.5 224.582C145.5 230.636 140.593 235.543 134.54 235.543L86.4597 235.543C80.4069 235.543 75.5 230.636 75.5 224.582Z" stroke="#8497B0" stroke-width="1.33309" stroke-miterlimit="8" fill="#BF9000" fill-rule="evenodd"/><text fill="#FFFFFF" font-family="Calibri,Calibri_MSFontService,sans-serif" font-weight="700" font-size="14" transform="matrix(1 0 0 1.00018 89.3518 224)">Storing</text><path d="M215.5 152.488C215.5 146.434 220.407 141.526 226.46 141.526L274.54 141.526C280.593 141.526 285.5 146.434 285.5 152.488L285.5 162.57C285.5 168.624 280.593 173.532 274.54 173.532L226.46 173.532C220.407 173.532 215.5 168.624 215.5 162.57Z" stroke="#8497B0" stroke-width="1.33309" stroke-miterlimit="8" fill="#561043" fill-rule="evenodd"/><text fill="#FFFFFF" font-family="Calibri,Calibri_MSFontService,sans-serif" font-weight="700" font-size="14" transform="matrix(1 0 0 1.00018 230.97 162)">Selling</text><path d="M215.5 280.511C215.5 274.457 220.407 269.549 226.46 269.549L300.54 269.549C306.593 269.549 311.5 274.457 311.5 280.511L311.5 290.594C311.5 296.648 306.593 301.555 300.54 301.555L226.46 301.555C220.407 301.555 215.5 296.648 215.5 290.594Z" stroke="#8497B0" stroke-width="1.33309" stroke-miterlimit="8" fill="#561043" fill-rule="evenodd"/><text fill="#FFFFFF" font-family="Calibri,Calibri_MSFontService,sans-serif" font-weight="700" font-size="14" transform="matrix(1 0 0 1.00018 231.485 290)">Auctioning</text><path d="M391.5 214.499C391.5 208.445 396.407 203.537 402.46 203.537L442.54 203.537C448.593 203.537 453.5 208.445 453.5 214.499L453.5 224.582C453.5 230.636 448.593 235.543 442.54 235.543L402.46 235.543C396.407 235.543 391.5 230.636 391.5 224.582Z" stroke="#8497B0" stroke-width="1.33309" stroke-miterlimit="8" fill="#7F6000" fill-rule="evenodd"/><text fill="#FFFFFF" font-family="Calibri,Calibri_MSFontService,sans-serif" font-weight="700" font-size="14" transform="matrix(1 0 0 1.00018 409.755 224)">Paid</text><path d="M540.5 214.499C540.5 208.445 545.407 203.537 551.46 203.537L615.54 203.537C621.593 203.537 626.5 208.445 626.5 214.499L626.5 224.582C626.5 230.636 621.593 235.543 615.54 235.543L551.46 235.543C545.407 235.543 540.5 230.636 540.5 224.582Z" stroke="#8497B0" stroke-width="1.33309" stroke-miterlimit="8" fill="#7030A0" fill-rule="evenodd"/><text fill="#FFFFFF" font-family="Calibri,Calibri_MSFontService,sans-serif" font-weight="700" font-size="14" transform="matrix(1 0 0 1.00018 555.228 224)">InSecrecy</text><path d="M737.5 214.499C737.5 208.445 742.407 203.537 748.46 203.537L814.54 203.537C820.593 203.537 825.5 208.445 825.5 214.499L825.5 224.582C825.5 230.636 820.593 235.543 814.54 235.543L748.46 235.543C742.407 235.543 737.5 230.636 737.5 224.582Z" stroke="#8497B0" stroke-width="1.33309" stroke-miterlimit="8" fill="#00B050" fill-rule="evenodd"/><text fill="#FFFFFF" font-family="Calibri,Calibri_MSFontService,sans-serif" font-weight="700" font-size="14" transform="matrix(1 0 0 1.00018 752.555 224)">Published</text><path d="M0-0.333272 35.0349-0.333272 35.0349 61.9987 34.7016 61.6654 62.7378 61.6654 62.7378 62.332 34.3683 62.332 34.3683 0 34.7016 0.333272 0 0.333272ZM61.4047 57.9994 69.4032 61.9987 61.4047 65.9979Z" fill="#8497B0" transform="matrix(1 0 0 -1.00018 145.5 219.539)"/><path d="M145.5 219.207 180.535 219.207 180.535 285.647 180.202 285.314 208.238 285.314 208.238 285.981 179.868 285.981 179.868 219.54 180.202 219.874 145.5 219.874ZM206.905 281.647 214.903 285.647 206.905 289.647Z" fill="#8497B0"/><path d="M285.5 157.196 352.178 157.196 352.178 219.539 351.845 219.206 384.766 219.206 384.766 219.873 351.512 219.873 351.512 157.529 351.845 157.862 285.5 157.862ZM383.433 215.539 391.431 219.539 383.433 223.539Z" fill="#8497B0"/><path d="M0-0.333272 40.5364-0.333272 40.5364 66.0945 40.2032 65.7612 73.7409 65.7612 73.7409 66.4278 39.8699 66.4278 39.8699 0 40.2032 0.333272 0 0.333272ZM72.4078 62.0953 80.4063 66.0945 72.4078 70.0938Z" fill="#8497B0" transform="matrix(1 0 0 -1.00018 311.5 285.647)"/><path d="M453.5 219.207 533.28 219.207 533.28 219.874 453.5 219.874ZM531.947 215.54 539.945 219.54 531.947 223.54Z" fill="#8497B0"/><path d="M422.167 203.96 422.167 144.193 533.36 144.193 533.36 144.86 422.5 144.86 422.833 144.527 422.833 203.96ZM532.027 140.527 540.025 144.527 532.027 148.527Z" fill="#8497B0"/><path d="M635.5 144.193 782.32 144.193 782.32 197.293 781.653 197.293 781.653 144.527 781.987 144.86 635.5 144.86ZM785.986 195.96 781.987 203.96 777.987 195.96Z" fill="#8497B0"/><path d="M626.5 219.207 731.321 219.207 731.321 219.874 626.5 219.874ZM729.988 215.54 737.987 219.54 729.988 223.54Z" fill="#8497B0"/><text fill="#FFFFFF" font-family="Calibri,Calibri_MSFontService,sans-serif" font-weight="700" font-size="24" transform="matrix(1 0 0 1.00018 325.73 60)">Truth Box Status Duration</text></g></svg>