<svg width="1280" height="720" xmlns="http://www.w3.org/2000/svg" xmlns:xlink="http://www.w3.org/1999/xlink" overflow="hidden"><g><rect x="0" y="0" width="1280" height="720" fill="#191919"/><text fill="#FFFFFF" font-family="Calibri,Calibri_MSFontService,sans-serif" font-weight="700" font-size="24" transform="translate(528.197 81)">Token Unlock Timeline</text><g><path d="M271.5 498.5 1039.5 498.5M271.5 453.5 1039.5 453.5M271.5 408.5 1039.5 408.5M271.5 362.5 1039.5 362.5M271.5 317.5 1039.5 317.5M271.5 272.5 1039.5 272.5M271.5 227.5 1039.5 227.5M271.5 182.5 1039.5 182.5M271.5 137.5 1039.5 137.5" stroke="#D9D9D9" stroke-linejoin="round" stroke-miterlimit="10" fill="none"/></g><g><path d="M271 498 381 489 491 480 600 471 710 462 820 453 930 444 1039 426 1039 543 930 543 820 543 710 543 600 543 491 543 381 543 271 543Z" fill="#4472C4"/></g><g><path d="M271 453 381 426 491 399 600 372 710 345 820 318 930 291 1039 246 1039 426 930 444 820 453 710 462 600 471 491 480 381 489 271 498Z" fill="#ED7D31"/></g><g><path d="M271 444 381 408 491 372 600 336 710 300 820 264 930 227 1039 173 1039 246 930 291 820 318 710 345 600 372 491 399 381 426 271 453Z" fill="#A5A5A5"/></g><g><path d="M271.5 543.5 1039.5 543.5" stroke="#D9D9D9" stroke-linejoin="round" stroke-miterlimit="10" fill="none" fill-rule="evenodd"/></g><g><path d="M271.5 543.5 271.5 547.5M307.5 543.5 307.5 547.5M344.5 543.5 344.5 547.5M380.5 543.5 380.5 547.5M417.5 543.5 417.5 547.5M454.5 543.5 454.5 547.5M490.5 543.5 490.5 547.5M527.5 543.5 527.5 547.5M563.5 543.5 563.5 547.5M600.5 543.5 600.5 547.5M636.5 543.5 636.5 547.5M673.5 543.5 673.5 547.5M710.5 543.5 710.5 547.5M746.5 543.5 746.5 547.5M783.5 543.5 783.5 547.5M819.5 543.5 819.5 547.5M856.5 543.5 856.5 547.5M892.5 543.5 892.5 547.5M929.5 543.5 929.5 547.5M966.5 543.5 966.5 547.5M1002.5 543.5 1002.5 547.5M1039.5 543.5 1039.5 547.5" stroke="#D9D9D9" stroke-linejoin="round" stroke-miterlimit="10" fill="none"/></g><g><text fill="#FFFFFF" font-family="DengXian,DengXian_MSFontService,sans-serif" font-weight="400" font-size="16" transform="translate(250.201 548)">0</text></g><g><text fill="#FFFFFF" font-family="DengXian,DengXian_MSFontService,sans-serif" font-weight="400" font-size="16" transform="translate(250.201 503)">5</text></g><g><text fill="#FFFFFF" font-family="DengXian,DengXian_MSFontService,sans-serif" font-weight="400" font-size="16" transform="translate(241.794 458)">10</text></g><g><text fill="#FFFFFF" font-family="DengXian,DengXian_MSFontService,sans-serif" font-weight="400" font-size="16" transform="translate(241.794 413)">15</text></g><g><text fill="#FFFFFF" font-family="DengXian,DengXian_MSFontService,sans-serif" font-weight="400" font-size="16" transform="translate(241.794 367)">20</text></g><g><text fill="#FFFFFF" font-family="DengXian,DengXian_MSFontService,sans-serif" font-weight="400" font-size="16" transform="translate(241.794 322)">25</text></g><g><text fill="#FFFFFF" font-family="DengXian,DengXian_MSFontService,sans-serif" font-weight="400" font-size="16" transform="translate(241.794 277)">30</text></g><g><text fill="#FFFFFF" font-family="DengXian,DengXian_MSFontService,sans-serif" font-weight="400" font-size="16" transform="translate(241.794 232)">35</text></g><g><text fill="#FFFFFF" font-family="DengXian,DengXian_MSFontService,sans-serif" font-weight="400" font-size="16" transform="translate(241.794 187)">40</text></g><g><text fill="#FFFFFF" font-family="DengXian,DengXian_MSFontService,sans-serif" font-weight="400" font-size="16" transform="translate(241.794 142)">45</text></g><g><text fill="#595959" font-family="DengXian,DengXian_MSFontService,sans-serif" font-weight="400" font-size="16" transform="matrix(0.707107 -0.707107 0.707107 0.707107 230.345 605)">2026/3/1</text></g><g><text fill="#595959" font-family="DengXian,DengXian_MSFontService,sans-serif" font-weight="400" font-size="16" transform="matrix(0.707107 -0.707107 0.707107 0.707107 266.918 605)">2026/4/1</text></g><g><text fill="#595959" font-family="DengXian,DengXian_MSFontService,sans-serif" font-weight="400" font-size="16" transform="matrix(0.707107 -0.707107 0.707107 0.707107 303.492 605)">2026/5/1</text></g><g><text fill="#595959" font-family="DengXian,DengXian_MSFontService,sans-serif" font-weight="400" font-size="16" transform="matrix(0.707107 -0.707107 0.707107 0.707107 340.065 605)">2026/6/1</text></g><g><text fill="#595959" font-family="DengXian,DengXian_MSFontService,sans-serif" font-weight="400" font-size="16" transform="matrix(0.707107 -0.707107 0.707107 0.707107 376.639 605)">2026/7/1</text></g><g><text fill="#595959" font-family="DengXian,DengXian_MSFontService,sans-serif" font-weight="400" font-size="16" transform="matrix(0.707107 -0.707107 0.707107 0.707107 413.212 605)">2026/8/1</text></g><g><text fill="#595959" font-family="DengXian,DengXian_MSFontService,sans-serif" font-weight="400" font-size="16" transform="matrix(0.707107 -0.707107 0.707107 0.707107 449.786 605)">2026/9/1</text></g><g><text fill="#595959" font-family="DengXian,DengXian_MSFontService,sans-serif" font-weight="400" font-size="16" transform="matrix(0.707107 -0.707107 0.707107 0.707107 480.415 611)">2026/10/1</text></g><g><text fill="#595959" font-family="DengXian,DengXian_MSFontService,sans-serif" font-weight="400" font-size="16" transform="matrix(0.707107 -0.707107 0.707107 0.707107 516.988 611)">2026/11/1</text></g><g><text fill="#595959" font-family="DengXian,DengXian_MSFontService,sans-serif" font-weight="400" font-size="16" transform="matrix(0.707107 -0.707107 0.707107 0.707107 553.562 611)">2026/12/1</text></g><g><text fill="#595959" font-family="DengXian,DengXian_MSFontService,sans-serif" font-weight="400" font-size="16" transform="matrix(0.707107 -0.707107 0.707107 0.707107 596.08 605)">2027/1/1</text></g><g><text fill="#595959" font-family="DengXian,DengXian_MSFontService,sans-serif" font-weight="400" font-size="16" transform="matrix(0.707107 -0.707107 0.707107 0.707107 632.653 605)">2027/2/1</text></g><g><text fill="#595959" font-family="DengXian,DengXian_MSFontService,sans-serif" font-weight="400" font-size="16" transform="matrix(0.707107 -0.707107 0.707107 0.707107 669.227 605)">2027/3/1</text></g><g><text fill="#595959" font-family="DengXian,DengXian_MSFontService,sans-serif" font-weight="400" font-size="16" transform="matrix(0.707107 -0.707107 0.707107 0.707107 705.8 605)">2027/4/1</text></g><g><text fill="#595959" font-family="DengXian,DengXian_MSFontService,sans-serif" font-weight="400" font-size="16" transform="matrix(0.707107 -0.707107 0.707107 0.707107 742.374 605)">2027/5/1</text></g><g><text fill="#595959" font-family="DengXian,DengXian_MSFontService,sans-serif" font-weight="400" font-size="16" transform="matrix(0.707107 -0.707107 0.707107 0.707107 778.947 605)">2027/6/1</text></g><g><text fill="#595959" font-family="DengXian,DengXian_MSFontService,sans-serif" font-weight="400" font-size="16" transform="matrix(0.707107 -0.707107 0.707107 0.707107 815.521 605)">2027/7/1</text></g><g><text fill="#595959" font-family="DengXian,DengXian_MSFontService,sans-serif" font-weight="400" font-size="16" transform="matrix(0.707107 -0.707107 0.707107 0.707107 852.094 605)">2027/8/1</text></g><g><text fill="#595959" font-family="DengXian,DengXian_MSFontService,sans-serif" font-weight="400" font-size="16" transform="matrix(0.707107 -0.707107 0.707107 0.707107 888.668 605)">2027/9/1</text></g><g><text fill="#595959" font-family="DengXian,DengXian_MSFontService,sans-serif" font-weight="400" font-size="16" transform="matrix(0.707107 -0.707107 0.707107 0.707107 919.297 611)">2027/10/1</text></g><g><text fill="#595959" font-family="DengXian,DengXian_MSFontService,sans-serif" font-weight="400" font-size="16" transform="matrix(0.707107 -0.707107 0.707107 0.707107 955.87 611)">2027/11/1</text></g><g><text fill="#595959" font-family="DengXian,DengXian_MSFontService,sans-serif" font-weight="400" font-size="16" transform="matrix(0.707107 -0.707107 0.707107 0.707107 992.444 611)">2027/12/1</text></g><g><rect x="527" y="631" width="8" height="8" fill="#4472C4"/></g><g><text fill="#FFFFFF" font-family="DengXian,DengXian_MSFontService,sans-serif" font-weight="400" font-size="16" transform="translate(537.836 639)">Team</text></g><g><rect x="591" y="631" width="7" height="8" fill="#ED7D31"/></g><g><text fill="#FFFFFF" font-family="DengXian,DengXian_MSFontService,sans-serif" font-weight="400" font-size="16" transform="translate(601.285 639)">Ecosystem</text></g><g><rect x="688" y="631" width="7" height="8" fill="#A5A5A5"/></g><g><text fill="#FFFFFF" font-family="DengXian,DengXian_MSFontService,sans-serif" font-weight="400" font-size="16" transform="translate(698.401 639)">Liquidity</text></g></g></svg>