<svg width="1280" height="720" xmlns="http://www.w3.org/2000/svg" xmlns:xlink="http://www.w3.org/1999/xlink" overflow="hidden"><g><rect x="0" y="0" width="1280" height="720" fill="#191919"/><text fill="#FFFFFF" font-family="DengXian,DengXian_MSFontService,sans-serif" font-weight="700" font-size="24" transform="translate(560.417 60)">Create Process</text><path d="M569.5 454.167C569.5 449.38 573.38 445.5 578.167 445.5L663.833 445.5C668.62 445.5 672.5 449.38 672.5 454.167L672.5 488.833C672.5 493.62 668.62 497.5 663.833 497.5L578.167 497.5C573.38 497.5 569.5 493.62 569.5 488.833Z" stroke="#C55A11" stroke-width="1.33333" stroke-miterlimit="8" fill="#0D0D0D" fill-rule="evenodd"/><text fill="#FFFFFF" font-family="DengXian,DengXian_MSFontService,sans-serif" font-weight="400" font-size="14.6667" transform="translate(584.676 467)">AES+ECDH</text><text fill="#FFFFFF" font-family="DengXian,DengXian_MSFontService,sans-serif" font-weight="400" font-size="14.6667" transform="translate(596.677 484)">Encrypt</text><path d="M385 172.355C385 165.532 390.532 160 397.355 160L505.645 160C512.468 160 518 165.532 518 172.355L518 241.645C518 248.468 512.468 254 505.645 254L397.355 254C390.532 254 385 248.468 385 241.645Z" stroke="#533E86" stroke-width="2" stroke-miterlimit="8" stroke-dasharray="8 6" fill="none" fill-rule="evenodd"/><text fill="#FFFFFF" font-family="DengXian,DengXian_MSFontService,sans-serif" font-weight="400" font-size="16" transform="translate(417.651 185)">Compress</text><path d="M998.5 211.334C998.5 207.56 1001.56 204.5 1005.33 204.5L1088.67 204.5C1092.44 204.5 1095.5 207.56 1095.5 211.334L1095.5 238.667C1095.5 242.441 1092.44 245.5 1088.67 245.5L1005.33 245.5C1001.56 245.5 998.5 242.441 998.5 238.667Z" stroke="#2F528F" stroke-width="1.33333" stroke-miterlimit="8" fill="#7F6000" fill-rule="evenodd"/><text fill="#FFFFFF" font-family="Microsoft YaHei,Microsoft YaHei_MSFontService,sans-serif" font-weight="400" font-size="16" transform="translate(1011.39 230)">IPFS / AR</text><path d="M417.5 214.577C417.5 210.668 420.668 207.5 424.577 207.5L479.423 207.5C483.332 207.5 486.5 210.668 486.5 214.577L486.5 232.423C486.5 236.332 483.332 239.5 479.423 239.5L424.577 239.5C420.668 239.5 417.5 236.332 417.5 232.423Z" stroke="#548235" stroke-width="1.33333" stroke-miterlimit="8" fill="#1C1E2C" fill-rule="evenodd"/><text fill="#FFFFFF" font-family="DengXian,DengXian_MSFontService,sans-serif" font-weight="400" font-size="14" transform="translate(441.651 227)">.zip</text><path d="M581 152.11C581 141.004 590.004 132 601.11 132L726.89 132C737.996 132 747 141.004 747 152.11L747 264.89C747 275.996 737.996 285 726.89 285L601.11 285C590.004 285 581 275.996 581 264.89Z" stroke="#533E86" stroke-width="2" stroke-miterlimit="8" stroke-dasharray="8 6" fill="none" fill-rule="evenodd"/><path d="M611.5 182.356C611.5 178.569 614.569 175.5 618.356 175.5L661.644 175.5C665.431 175.5 668.5 178.569 668.5 182.356L668.5 199.644C668.5 203.431 665.431 206.5 661.644 206.5L618.356 206.5C614.569 206.5 611.5 203.431 611.5 199.644Z" stroke="#548235" stroke-width="1.33333" stroke-miterlimit="8" fill="#1C1E2C" fill-rule="evenodd"/><text fill="#FFFFFF" font-family="DengXian,DengXian_MSFontService,sans-serif" font-weight="400" font-size="14" transform="translate(629.147 195)">.zip</text><path d="M627.5 198.356C627.5 194.569 630.569 191.5 634.356 191.5L677.644 191.5C681.431 191.5 684.5 194.569 684.5 198.356L684.5 215.644C684.5 219.431 681.431 222.5 677.644 222.5L634.356 222.5C630.569 222.5 627.5 219.431 627.5 215.644Z" stroke="#548235" stroke-width="1.33333" stroke-miterlimit="8" fill="#1C1E2C" fill-rule="evenodd"/><text fill="#FFFFFF" font-family="DengXian,DengXian_MSFontService,sans-serif" font-weight="400" font-size="14" transform="translate(645.147 211)">.zip</text><path d="M643.5 214.356C643.5 210.569 646.569 207.5 650.356 207.5L693.644 207.5C697.431 207.5 700.5 210.569 700.5 214.356L700.5 231.644C700.5 235.431 697.431 238.5 693.644 238.5L650.356 238.5C646.569 238.5 643.5 235.431 643.5 231.644Z" stroke="#548235" stroke-width="1.33333" stroke-miterlimit="8" fill="#1C1E2C" fill-rule="evenodd"/><text fill="#FFFFFF" font-family="DengXian,DengXian_MSFontService,sans-serif" font-weight="400" font-size="14" transform="translate(661.147 227)">.zip</text><path d="M659.5 230.356C659.5 226.569 662.569 223.5 666.356 223.5L709.644 223.5C713.431 223.5 716.5 226.569 716.5 230.356L716.5 247.644C716.5 251.431 713.431 254.5 709.644 254.5L666.356 254.5C662.569 254.5 659.5 251.431 659.5 247.644Z" stroke="#548235" stroke-width="1.33333" stroke-miterlimit="8" fill="#1C1E2C" fill-rule="evenodd"/><text fill="#FFFFFF" font-family="DengXian,DengXian_MSFontService,sans-serif" font-weight="400" font-size="14" transform="translate(677.147 243)">.zip</text><path d="M675.5 246.356C675.5 242.569 678.569 239.5 682.356 239.5L725.644 239.5C729.431 239.5 732.5 242.569 732.5 246.356L732.5 263.644C732.5 267.431 729.431 270.5 725.644 270.5L682.356 270.5C678.569 270.5 675.5 267.431 675.5 263.644Z" stroke="#548235" stroke-width="1.33333" stroke-miterlimit="8" fill="#1C1E2C" fill-rule="evenodd"/><text fill="#FFFFFF" font-family="DengXian,DengXian_MSFontService,sans-serif" font-weight="400" font-size="14" transform="translate(693.147 259)">.zip</text><text fill="#FFFFFF" font-family="DengXian,DengXian_MSFontService,sans-serif" font-weight="400" font-size="16" transform="translate(633.614 157)">Slice files</text><path d="M966 170.667C966 160.358 974.357 152 984.667 152L1106.33 152C1116.64 152 1125 160.358 1125 170.667L1125 245.333C1125 255.642 1116.64 264 1106.33 264L984.667 264C974.357 264 966 255.642 966 245.333Z" stroke="#7F6000" stroke-width="2" stroke-miterlimit="8" stroke-dasharray="8 6" fill="none" fill-rule="evenodd"/><text fill="#FFFFFF" font-family="DengXian,DengXian_MSFontService,sans-serif" font-weight="400" font-size="14.6667" transform="translate(989.196 183)">Decentralian</text><text fill="#FFFFFF" font-family="DengXian,DengXian_MSFontService,sans-serif" font-weight="400" font-size="14.6667" transform="translate(1072.03 183)">store</text><path d="M554 405.036C554 396.179 561.179 389 570.036 389L670.964 389C679.821 389 687 396.179 687 405.036L687 494.964C687 503.821 679.821 511 670.964 511L570.036 511C561.179 511 554 503.821 554 494.964Z" stroke="#843C0C" stroke-width="2" stroke-miterlimit="8" stroke-dasharray="8 6" fill="none" fill-rule="evenodd"/><path d="M424.5 336.188C424.5 329.181 430.181 323.5 437.188 323.5L497.812 323.5C504.82 323.5 510.5 329.181 510.5 336.188L510.5 346.812C510.5 353.82 504.82 359.5 497.812 359.5L437.188 359.5C430.181 359.5 424.5 353.82 424.5 346.812Z" stroke="#92D050" stroke-width="1.33333" stroke-miterlimit="8" stroke-dasharray="5.33333 4" fill="#333F50" fill-rule="evenodd"/><text fill="#FFFFFF" font-family="DengXian,DengXian_MSFontService,sans-serif" font-weight="400" font-size="14" transform="translate(438.951 346)">password</text><path d="M452.833 254.5 452.833 312.066 452.167 312.066 452.167 254.5ZM456.5 310.733 452.5 318.733 448.5 310.733Z" fill="#8497B0"/><path d="M759.5 338.245C759.5 330.654 765.654 324.5 773.245 324.5L831.755 324.5C839.346 324.5 845.5 330.654 845.5 338.245L845.5 349.755C845.5 357.346 839.346 363.5 831.755 363.5L773.245 363.5C765.654 363.5 759.5 357.346 759.5 349.755Z" stroke="#92D050" stroke-width="1.33333" stroke-miterlimit="8" stroke-dasharray="5.33333 4" fill="#333F50" fill-rule="evenodd"/><text fill="#FFFFFF" font-family="DengXian,DengXian_MSFontService,sans-serif" font-weight="400" font-size="14" transform="translate(791.443 340)">CID</text><text fill="#FFFFFF" font-family="DengXian,DengXian_MSFontService,sans-serif" font-weight="400" font-size="14" transform="translate(786.523 357)">(files)</text><path d="M775.5 511.188C775.5 504.181 781.181 498.5 788.188 498.5L865.812 498.5C872.82 498.5 878.5 504.181 878.5 511.188L878.5 521.812C878.5 528.82 872.82 534.5 865.812 534.5L788.188 534.5C781.181 534.5 775.5 528.82 775.5 521.812Z" stroke="#993366" stroke-width="1.33333" stroke-miterlimit="8" stroke-dasharray="5.33333 4" fill="#333F50" fill-rule="evenodd"/><text fill="#FFFFFF" font-family="DengXian,DengXian_MSFontService,sans-serif" font-weight="400" font-size="14" transform="translate(794.014 521)">Private key</text><path d="M0-0.333333 118.706-0.333333 118.669 36.5314 118.003 36.5307 118.039-0.000328823 118.372 0.333333 0 0.333333ZM122.371 35.3063 118.156 43.1953 114.373 35.0901Z" fill="#8497B0" transform="matrix(-1 1.22465e-16 1.22465e-16 1 759.656 343.5)"/><path d="M510.5 341.167 620.523 341.167 620.523 382.655 619.857 382.655 619.857 341.5 620.19 341.833 510.5 341.833ZM624.19 381.322 620.19 389.322 616.19 381.322Z" fill="#8497B0"/><path d="M346.5 577.128C346.5 571.258 351.258 566.5 357.128 566.5L468.872 566.5C474.742 566.5 479.5 571.258 479.5 577.128L479.5 602.872C479.5 608.742 474.742 613.5 468.872 613.5L357.128 613.5C351.258 613.5 346.5 608.742 346.5 602.872Z" stroke="#993366" stroke-width="1.33333" stroke-miterlimit="8" stroke-dasharray="5.33333 4" fill="#333F50" fill-rule="evenodd"/><text fill="#FFFFFF" font-family="DengXian,DengXian_MSFontService,sans-serif" font-weight="400" font-size="14" transform="translate(366.513 585)">Encrypted Data</text><text fill="#FFFFFF" font-family="DengXian,DengXian_MSFontService,sans-serif" font-weight="400" font-size="14" transform="translate(382.433 602)">Public key</text><path d="M335 564.834C335 557.194 341.194 551 348.834 551L606.166 551C613.807 551 620 557.194 620 564.834L620 620.166C620 627.806 613.807 634 606.166 634L348.834 634C341.194 634 335 627.806 335 620.166Z" stroke="#533E86" stroke-width="2" stroke-miterlimit="8" stroke-dasharray="8 6" fill="none" fill-rule="evenodd"/><path d="M0-0.333333 542.893-0.333333 542.893 384.723 511.106 384.723 511.106 384.056 542.56 384.056 542.227 384.389 542.227 0 542.56 0.333333 0 0.333333ZM512.439 388.389 504.439 384.389 512.439 380.389Z" fill="#8497B0" transform="matrix(1 0 0 -1 620.5 592.889)"/><text fill="#FFFFFF" font-family="DengXian,DengXian_MSFontService,sans-serif" font-weight="400" font-size="16" transform="translate(582.074 421)">Encryption</text><path d="M777.5 458.303C777.5 450.127 784.127 443.5 792.303 443.5L861.698 443.5C869.873 443.5 876.5 450.127 876.5 458.303L876.5 470.698C876.5 478.873 869.873 485.5 861.698 485.5L792.303 485.5C784.127 485.5 777.5 478.873 777.5 470.698Z" stroke="#92D050" stroke-width="1.33333" stroke-miterlimit="8" stroke-dasharray="5.33333 4" fill="#333F50" fill-rule="evenodd"/><text fill="#FFFFFF" font-family="DengXian,DengXian_MSFontService,sans-serif" font-weight="400" font-size="14" transform="translate(815.428 461)">CID</text><text fill="#FFFFFF" font-family="DengXian,DengXian_MSFontService,sans-serif" font-weight="400" font-size="14" transform="translate(793.681 478)">(metadata)</text><path d="M1045.81 264.5 1045.81 380.146 826.5 380.146 826.833 379.813 826.833 437.636 826.167 437.636 826.167 379.479 1045.48 379.479 1045.15 379.813 1045.15 264.5ZM830.5 436.302 826.5 444.302 822.5 436.302Z" fill="#8497B0"/><path d="M0-0.333333 141.432-0.333333 141.432 108.875 140.765 108.875 140.765 0 141.099 0.333333 0 0.333333ZM145.099 107.542 141.099 115.542 137.099 107.542Z" fill="#8497B0" transform="matrix(-1 1.22465e-16 1.22465e-16 1 553.599 450.5)"/><path d="M106.5 398.667C106.5 394.709 109.709 391.5 113.667 391.5L178.333 391.5C182.291 391.5 185.5 394.709 185.5 398.667L185.5 427.333C185.5 431.291 182.291 434.5 178.333 434.5L113.667 434.5C109.709 434.5 106.5 431.291 106.5 427.333Z" stroke="#8497B0" stroke-width="1.33333" stroke-miterlimit="8" fill="#7030A0" fill-rule="evenodd"/><text fill="#FFFFFF" font-family="DengXian,DengXian_MSFontService,sans-serif" font-weight="400" font-size="18.6667" transform="translate(119.035 418)">Minter</text><path d="M998.5 502.667C998.5 499.261 1001.26 496.5 1004.67 496.5L1109.33 496.5C1112.74 496.5 1115.5 499.261 1115.5 502.667L1115.5 527.333C1115.5 530.739 1112.74 533.5 1109.33 533.5L1004.67 533.5C1001.26 533.5 998.5 530.739 998.5 527.333Z" stroke="#8497B0" stroke-width="1.33333" stroke-miterlimit="8" fill="#392E62" fill-rule="evenodd"/><text fill="#FFFFFF" font-family="DengXian,DengXian_MSFontService,sans-serif" font-weight="400" font-size="18.6667" transform="translate(1017.68 520)">Truth Box</text><text fill="#FFFFFF" font-family="DengXian,DengXian_MSFontService,sans-serif" font-weight="400" font-size="16" transform="translate(500.853 599)">metadata.json</text><path d="M518.5 207.167 550.227 207.167 550.227 209.05 549.894 208.716 574.621 208.716 574.621 209.383 549.56 209.383 549.56 207.5 549.894 207.833 518.5 207.833ZM573.287 205.05 581.287 209.05 573.287 213.05Z" fill="#8497B0"/><path d="M0-0.333333 109.823-0.333333 109.823 0.543622 109.489 0.210289 212.312 0.210289 212.312 0.876955 109.156 0.876955 109.156 0 109.489 0.333333 0 0.333333ZM210.979-3.45638 218.979 0.543622 210.979 4.54362Z" fill="#8497B0" transform="matrix(1 0 0 -1 747.5 209.044)"/><path d="M0-0.333333 98.6879-0.333333 98.6879 205.612 98.3546 205.278 193.808 205.278 193.808 205.945 98.0212 205.945 98.0212 0 98.3546 0.333333 0 0.333333ZM192.474 201.612 200.474 205.612 192.474 209.612Z" fill="#8497B0" transform="matrix(1 0 0 -1 185.5 413.112)"/><path d="M986 456.407C986 449.002 992.002 443 999.407 443L1112.59 443C1120 443 1126 449.002 1126 456.407L1126 531.593C1126 538.998 1120 545 1112.59 545L999.407 545C992.002 545 986 538.998 986 531.593Z" stroke="#FFC000" stroke-width="2" stroke-miterlimit="8" stroke-dasharray="8 6" fill="none" fill-rule="evenodd"/><text fill="#FFFFFF" font-family="DengXian,DengXian_MSFontService,sans-serif" font-weight="400" font-size="16" transform="translate(1033.77 474)">Create</text><path d="M687.5 450.167 732.07 450.167 732.07 516.419 731.736 516.086 769.306 516.086 769.306 516.753 731.403 516.753 731.403 450.5 731.736 450.833 687.5 450.833ZM767.972 512.419 775.972 516.419 767.972 520.419Z" fill="#8497B0"/><path d="M900.5 490.167 944.13 490.167 944.13 494.292 943.797 493.959 980.426 493.959 980.426 494.626 943.463 494.626 943.463 490.5 943.797 490.833 900.5 490.833ZM979.093 490.292 987.093 494.292 979.093 498.292Z" fill="#8497B0"/><path d="M250.5 380.38C250.5 373.819 255.819 368.5 262.38 368.5L336.62 368.5C343.181 368.5 348.5 373.819 348.5 380.38L348.5 393.62C348.5 400.181 343.181 405.5 336.62 405.5L262.38 405.5C255.819 405.5 250.5 400.181 250.5 393.62Z" stroke="#FFFF00" stroke-width="1.33333" stroke-miterlimit="8" stroke-dasharray="5.33333 4" fill="#2D3049" fill-rule="evenodd"/><text fill="#FFFFFF" font-family="DengXian,DengXian_MSFontService,sans-serif" font-weight="400" font-size="14.6667" transform="translate(271.103 383)">Evidence</text><text fill="#FFFFFF" font-family="DengXian,DengXian_MSFontService,sans-serif" font-weight="400" font-size="14.6667" transform="translate(286.683 400)">files</text><path d="M759 449.334C759 438.104 768.104 429 779.334 429L879.666 429C890.896 429 900 438.104 900 449.334L900 530.666C900 541.896 890.896 551 879.666 551L779.334 551C768.104 551 759 541.896 759 530.666Z" stroke="#533E86" stroke-width="2" stroke-miterlimit="8" stroke-dasharray="8 6" fill="none" fill-rule="evenodd"/><path d="M185.5 413.167 283.563 413.167 283.563 593.283 283.23 592.95 329.118 592.95 329.118 593.617 282.897 593.617 282.897 413.5 283.23 413.833 185.5 413.833ZM327.784 589.283 335.784 593.283 327.784 597.283Z" fill="#8497B0"/><path d="M0-0.333333 164.097-0.333333 164.097 85.7968 163.43 85.7968 163.43 0 163.764 0.333333 0 0.333333ZM167.764 84.4634 163.764 92.4634 159.764 84.4634Z" fill="#8497B0" transform="matrix(-1 1.22465e-16 1.22465e-16 1 966.264 232.5)"/><path d="M250.5 433.798C250.5 429.767 253.767 426.5 257.798 426.5L319.202 426.5C323.233 426.5 326.5 429.767 326.5 433.798L326.5 452.202C326.5 456.233 323.233 459.5 319.202 459.5L257.798 459.5C253.767 459.5 250.5 456.233 250.5 452.202Z" stroke="#FFC000" stroke-width="1.33333" stroke-miterlimit="8" stroke-dasharray="5.33333 4" fill="#333F50" fill-rule="evenodd"/><text fill="#FFFFFF" font-family="DengXian,DengXian_MSFontService,sans-serif" font-weight="400" font-size="14" transform="translate(263.331 447)">Box Info</text><path d="M235 364.834C235 352.775 244.775 343 256.834 343L344.166 343C356.225 343 366 352.775 366 364.834L366 458.166C366 470.225 356.225 480 344.166 480L256.834 480C244.775 480 235 470.225 235 458.166Z" stroke="#533E86" stroke-width="2" stroke-miterlimit="8" stroke-dasharray="8 6" fill="none" fill-rule="evenodd"/><path d="M534.5 187C534.5 178.992 540.992 172.5 549 172.5L555 172.5C563.008 172.5 569.5 178.992 569.5 187L569.5 187C569.5 195.008 563.008 201.5 555 201.5L549 201.5C540.992 201.5 534.5 195.008 534.5 187Z" stroke="#8497B0" stroke-width="1.33333" stroke-miterlimit="8" stroke-dasharray="5.33333 4" fill="none" fill-rule="evenodd"/><text fill="#FFFF00" font-family="Calibri,Calibri_MSFontService,sans-serif" font-weight="400" font-size="14.6667" transform="translate(547.807 191)">1</text><path d="M508.5 431C508.5 422.992 514.992 416.5 523 416.5L530 416.5C538.008 416.5 544.5 422.992 544.5 431L544.5 431C544.5 439.008 538.008 445.5 530 445.5L523 445.5C514.992 445.5 508.5 439.008 508.5 431Z" stroke="#8497B0" stroke-width="1.33333" stroke-miterlimit="8" stroke-dasharray="5.33333 4" fill="none" fill-rule="evenodd"/><text fill="#FFFF00" font-family="Calibri,Calibri_MSFontService,sans-serif" font-weight="400" font-size="14.6667" transform="translate(522.45 435)">3</text><path d="M578.5 572C578.5 563.992 584.992 557.5 593 557.5L600 557.5C608.008 557.5 614.5 563.992 614.5 572L614.5 572C614.5 580.008 608.008 586.5 600 586.5L593 586.5C584.992 586.5 578.5 580.008 578.5 572Z" stroke="#8497B0" stroke-width="1.33333" stroke-miterlimit="8" stroke-dasharray="5.33333 4" fill="none" fill-rule="evenodd"/><text fill="#FFFF00" font-family="Calibri,Calibri_MSFontService,sans-serif" font-weight="400" font-size="14.6667" transform="translate(592.116 577)">4</text><path d="M884.5 191C884.5 182.992 890.992 176.5 899 176.5L905 176.5C913.008 176.5 919.5 182.992 919.5 191L919.5 191C919.5 199.008 913.008 205.5 905 205.5L899 205.5C890.992 205.5 884.5 199.008 884.5 191Z" stroke="#8497B0" stroke-width="1.33333" stroke-miterlimit="8" stroke-dasharray="5.33333 4" fill="none" fill-rule="evenodd"/><text fill="#FFFF00" font-family="Calibri,Calibri_MSFontService,sans-serif" font-weight="400" font-size="14.6667" transform="translate(897.732 196)">2</text><path d="M907.5 471C907.5 462.992 913.992 456.5 922 456.5L929 456.5C937.008 456.5 943.5 462.992 943.5 471L943.5 471C943.5 479.008 937.008 485.5 929 485.5L922 485.5C913.992 485.5 907.5 479.008 907.5 471Z" stroke="#8497B0" stroke-width="1.33333" stroke-miterlimit="8" stroke-dasharray="5.33333 4" fill="none" fill-rule="evenodd"/><text fill="#FFFF00" font-family="Calibri,Calibri_MSFontService,sans-serif" font-weight="400" font-size="14.6667" transform="translate(921.632 476)">5</text></g></svg>