<svg width="1280" height="720" xmlns="http://www.w3.org/2000/svg" xmlns:xlink="http://www.w3.org/1999/xlink" overflow="hidden"><g><rect x="0" y="0" width="1280" height="720" fill="#191919"/><path d="M707.5 253.172C707.5 246.174 713.174 240.5 720.172 240.5L791.828 240.5C798.827 240.5 804.5 246.174 804.5 253.172L804.5 264.828C804.5 271.827 798.827 277.5 791.828 277.5L720.172 277.5C713.174 277.5 707.5 271.827 707.5 264.828Z" stroke="#8497B0" stroke-width="1.33333" stroke-miterlimit="8" fill="#843C0C" fill-rule="evenodd"/><text fill="#FFFFFF" font-family="DengXian,DengXian_MSFontService,sans-serif" font-weight="700" font-size="14" transform="translate(722.037 263)">Refunding</text><path d="M116.5 340.83C116.5 334.02 122.02 328.5 128.83 328.5L184.17 328.5C190.98 328.5 196.5 334.02 196.5 340.83L196.5 352.17C196.5 358.98 190.98 364.5 184.17 364.5L128.83 364.5C122.02 364.5 116.5 358.98 116.5 352.17Z" stroke="#8497B0" stroke-width="1.33333" stroke-miterlimit="8" fill="#BF9000" fill-rule="evenodd"/><text fill="#FFFFFF" font-family="DengXian,DengXian_MSFontService,sans-serif" font-weight="700" font-size="14" transform="translate(132.716 350)">Storing</text><path d="M254.5 278.83C254.5 272.02 260.02 266.5 266.83 266.5L322.17 266.5C328.98 266.5 334.5 272.02 334.5 278.83L334.5 290.17C334.5 296.98 328.98 302.5 322.17 302.5L266.83 302.5C260.02 302.5 254.5 296.98 254.5 290.17Z" stroke="#8497B0" stroke-width="1.33333" stroke-miterlimit="8" fill="#561043" fill-rule="evenodd"/><text fill="#FFFFFF" font-family="DengXian,DengXian_MSFontService,sans-serif" font-weight="700" font-size="14" transform="translate(273.047 288)">Selling</text><path d="M254.5 406.83C254.5 400.02 260.02 394.5 266.83 394.5L341.17 394.5C347.98 394.5 353.5 400.02 353.5 406.83L353.5 418.17C353.5 424.98 347.98 430.5 341.17 430.5L266.83 430.5C260.02 430.5 254.5 424.98 254.5 418.17Z" stroke="#8497B0" stroke-width="1.33333" stroke-miterlimit="8" fill="#561043" fill-rule="evenodd"/><text fill="#FFFFFF" font-family="DengXian,DengXian_MSFontService,sans-serif" font-weight="700" font-size="14" transform="translate(279.032 416)">Auction</text><path d="M454.5 343.83C454.5 337.02 460.02 331.5 466.83 331.5L544.17 331.5C550.98 331.5 556.5 337.02 556.5 343.83L556.5 355.17C556.5 361.98 550.98 367.5 544.17 367.5L466.83 367.5C460.02 367.5 454.5 361.98 454.5 355.17Z" stroke="#8497B0" stroke-width="1.33333" stroke-miterlimit="8" fill="#7F6000" fill-rule="evenodd"/><text fill="#FFFFFF" font-family="DengXian,DengXian_MSFontService,sans-serif" font-weight="700" font-size="14" transform="translate(490.99 354)">Paid</text><path d="M740.5 343.83C740.5 337.02 746.02 331.5 752.83 331.5L822.17 331.5C828.98 331.5 834.5 337.02 834.5 343.83L834.5 355.17C834.5 361.98 828.98 367.5 822.17 367.5L752.83 367.5C746.02 367.5 740.5 361.98 740.5 355.17Z" stroke="#8497B0" stroke-width="1.33333" stroke-miterlimit="8" fill="#7030A0" fill-rule="evenodd"/><text fill="#FFFFFF" font-family="DengXian,DengXian_MSFontService,sans-serif" font-weight="700" font-size="14" transform="translate(757.3 354)">InSecrecy</text><path d="M1039.5 343.83C1039.5 337.02 1045.02 331.5 1051.83 331.5L1126.17 331.5C1132.98 331.5 1138.5 337.02 1138.5 343.83L1138.5 355.17C1138.5 361.98 1132.98 367.5 1126.17 367.5L1051.83 367.5C1045.02 367.5 1039.5 361.98 1039.5 355.17Z" stroke="#8497B0" stroke-width="1.33333" stroke-miterlimit="8" fill="#00B050" fill-rule="evenodd"/><text fill="#FFFFFF" font-family="DengXian,DengXian_MSFontService,sans-serif" font-weight="700" font-size="14" transform="translate(1057.27 354)">Published</text><path d="M822 433.33C822 426.52 827.52 421 834.33 421L949.67 421C956.48 421 962 426.52 962 433.33L962 444.67C962 451.48 956.48 457 949.67 457L834.33 457C827.52 457 822 451.48 822 444.67Z" fill="#333F50" fill-rule="evenodd"/><text fill="#FFFFFF" font-family="DengXian,DengXian_MSFontService,sans-serif" font-weight="400" font-size="14" transform="translate(837.143 443)">Confidentiality fee</text><path d="M0-0.333333 29.5642-0.333333 29.5642 62.0103 29.2309 61.677 51.7951 61.677 51.7951 62.3436 28.8976 62.3436 28.8976 0 29.2309 0.333333 0 0.333333ZM50.4617 58.0103 58.4617 62.0103 50.4617 66.0103Z" fill="#8497B0" transform="matrix(1 0 0 -1 196.5 346.51)"/><path d="M196.5 346.167 226.064 346.167 226.064 412.607 225.731 412.273 248.295 412.273 248.295 412.94 225.398 412.94 225.398 346.5 225.731 346.833 196.5 346.833ZM246.962 408.607 254.962 412.607 246.962 416.607Z" fill="#8497B0"/><path d="M334.5 284.167 434.15 284.167 434.15 349.928 433.817 349.594 447.407 349.594 447.407 350.261 433.483 350.261 433.483 284.5 433.817 284.833 334.5 284.833ZM446.074 345.928 454.074 349.928 446.074 353.928Z" fill="#8497B0"/><path d="M0-0.333333 81.0852-0.333333 81.0852 62.6891 80.7518 62.3558 94.6022 62.3558 94.6022 63.0225 80.4185 63.0225 80.4185 0 80.7518 0.333333 0 0.333333ZM93.2689 58.6891 101.269 62.6891 93.2689 66.6891Z" fill="#8497B0" transform="matrix(1 0 0 -1 353.5 412.189)"/><path d="M556.5 349.167 734.665 349.167 734.665 349.833 556.5 349.833ZM733.331 345.5 741.331 349.5 733.331 353.5Z" fill="#8497B0"/><path d="M505.167 331.81 505.167 259.167 700.551 259.167 700.551 259.833 505.5 259.833 505.833 259.5 505.833 331.81ZM699.217 255.5 707.217 259.5 699.217 263.5Z" fill="#8497B0"/><path d="M804.5 259.167 1089.57 259.167 1089.57 325.084 1088.9 325.084 1088.9 259.5 1089.23 259.833 804.5 259.833ZM1093.23 323.751 1089.23 331.751 1085.23 323.751Z" fill="#8497B0"/><path d="M9.73443e-05-0.333333 197.531-0.275648 197.531 0.391019-9.73443e-05 0.333333ZM196.199-3.9427 204.198 0.0596325 196.197 4.0573Z" fill="#8497B0" transform="matrix(1 0 0 -1 834.5 349.56)"/><path d="M106.5 539.83C106.5 533.02 112.02 527.5 118.83 527.5L191.17 527.5C197.98 527.5 203.5 533.02 203.5 539.83L203.5 551.17C203.5 557.98 197.98 563.5 191.17 563.5L118.83 563.5C112.02 563.5 106.5 557.98 106.5 551.17Z" stroke="#525252" stroke-width="1.33333" stroke-miterlimit="8" fill="none" fill-rule="evenodd"/><text fill="#FFFFFF" font-family="DengXian,DengXian_MSFontService,sans-serif" font-weight="400" font-size="13.3333" transform="translate(129.376 549)">365 days</text><text fill="#FFFFFF" font-family="DengXian,DengXian_MSFontService,sans-serif" font-weight="700" font-size="24" transform="translate(548.247 67)">Status P</text><text fill="#FFFFFF" font-family="DengXian,DengXian_MSFontService,sans-serif" font-weight="700" font-size="24" transform="translate(636.08 67)">eriod</text><path d="M263.5 535.528C263.5 531.094 267.094 527.5 271.528 527.5L335.472 527.5C339.906 527.5 343.5 531.094 343.5 535.528L343.5 560.472C343.5 564.906 339.906 568.5 335.472 568.5L271.528 568.5C267.094 568.5 263.5 564.906 263.5 560.472Z" stroke="#525252" stroke-width="1.33333" stroke-miterlimit="8" fill="none" fill-rule="evenodd"/><text fill="#FFFFFF" font-family="DengXian,DengXian_MSFontService,sans-serif" font-weight="400" font-size="13.3333" transform="translate(281.268 552)">30 days</text><path d="M254.5 140.255C254.5 131.554 261.554 124.5 270.255 124.5L318.746 124.5C327.447 124.5 334.5 131.554 334.5 140.255L334.5 154.746C334.5 163.447 327.447 170.5 318.746 170.5L270.255 170.5C261.554 170.5 254.5 163.447 254.5 154.746Z" stroke="#525252" stroke-width="1.33333" stroke-miterlimit="8" fill="none" fill-rule="evenodd"/><text fill="#FFFFFF" font-family="DengXian,DengXian_MSFontService,sans-serif" font-weight="400" font-size="13.3333" transform="translate(269.13 151)">365 days</text><path d="M574.5 145.085C574.5 139.791 578.791 135.5 584.085 135.5L658.915 135.5C664.209 135.5 668.5 139.791 668.5 145.085L668.5 170.915C668.5 176.209 664.209 180.5 658.915 180.5L584.085 180.5C578.791 180.5 574.5 176.209 574.5 170.915Z" stroke="#525252" stroke-width="1.33333" stroke-miterlimit="8" fill="none" fill-rule="evenodd"/><text fill="#FFFFFF" font-family="DengXian,DengXian_MSFontService,sans-serif" font-weight="400" font-size="13.3333" transform="translate(602.247 162)">7 days</text><path d="M832.5 614.885C832.5 606.94 838.94 600.5 846.885 600.5L937.116 600.5C945.06 600.5 951.5 606.94 951.5 614.885L951.5 628.116C951.5 636.06 945.06 642.5 937.116 642.5L846.885 642.5C838.94 642.5 832.5 636.06 832.5 628.116Z" stroke="#525252" stroke-width="1.33333" stroke-miterlimit="8" fill="none" fill-rule="evenodd"/><text fill="#FFFFFF" font-family="DengXian,DengXian_MSFontService,sans-serif" font-weight="400" font-size="13.3333" transform="translate(860.023 625)">+ 365 days</text><path d="M0 0 1.25606 163.235" stroke="#8497B0" stroke-width="0.666667" stroke-miterlimit="8" fill="none" fill-rule="evenodd" transform="matrix(1 0 0 -1 155.5 527.735)"/><path d="M0 0 0.514646 97.1284" stroke="#8497B0" stroke-width="0.666667" stroke-miterlimit="8" fill="none" fill-rule="evenodd" transform="matrix(1 0 0 -1 303.5 527.628)"/><path d="M0 0 0.000104987 95.6723" stroke="#8497B0" stroke-width="0.666667" stroke-miterlimit="8" fill="none" fill-rule="evenodd" transform="matrix(-1 0 0 1 294.5 170.5)"/><path d="M621.5 217.862 621.5 180.5" stroke="#8497B0" stroke-width="0.666667" stroke-miterlimit="8" fill="none" fill-rule="evenodd"/><path d="M892.546 600.069 892.5 457.5" stroke="#8497B0" stroke-width="0.666667" stroke-miterlimit="8" fill="none" fill-rule="evenodd"/><path d="M829.5 136.085C829.5 130.791 833.791 126.5 839.085 126.5L913.915 126.5C919.209 126.5 923.5 130.791 923.5 136.085L923.5 161.915C923.5 167.209 919.209 171.5 913.915 171.5L839.085 171.5C833.791 171.5 829.5 167.209 829.5 161.915Z" stroke="#525252" stroke-width="1.33333" stroke-miterlimit="8" fill="none" fill-rule="evenodd"/><text fill="#FFFFFF" font-family="DengXian,DengXian_MSFontService,sans-serif" font-weight="400" font-size="13.3333" transform="translate(854.499 153)">30 days</text><path d="M876.5 171.5 876.5 216.513" stroke="#8497B0" stroke-width="0.666667" stroke-miterlimit="8" fill="none" fill-rule="evenodd"/><path d="M705.5 348.86C705.5 332.093 719.093 318.5 735.86 318.5L960.14 318.5C976.907 318.5 990.5 332.093 990.5 348.86L990.5 453.14C990.5 469.907 976.907 483.5 960.14 483.5L735.86 483.5C719.093 483.5 705.5 469.907 705.5 453.14Z" stroke="#8497B0" stroke-width="1.33333" stroke-miterlimit="8" stroke-dasharray="10.6667 4" fill="none" fill-rule="evenodd"/><path d="M744.5 536.23C744.5 531.409 748.409 527.5 753.23 527.5L822.77 527.5C827.591 527.5 831.5 531.409 831.5 536.23L831.5 569.77C831.5 574.591 827.591 578.5 822.77 578.5L753.23 578.5C748.409 578.5 744.5 574.591 744.5 569.77Z" stroke="#525252" stroke-width="1.33333" stroke-miterlimit="8" fill="none" fill-rule="evenodd"/><text fill="#FFFFFF" font-family="DengXian,DengXian_MSFontService,sans-serif" font-weight="400" font-size="13.3333" transform="translate(762.05 557)">365 days</text><path d="M0 0 0.000104987 159.933" stroke="#8497B0" stroke-width="0.666667" stroke-miterlimit="8" fill="none" fill-rule="evenodd" transform="matrix(1 0 0 -1 787.5 527.433)"/><path d="M243.5 401.636C243.5 391.068 252.068 382.5 262.636 382.5L388.364 382.5C398.933 382.5 407.5 391.068 407.5 401.636L407.5 467.364C407.5 477.933 398.933 486.5 388.364 486.5L262.636 486.5C252.068 486.5 243.5 477.933 243.5 467.364Z" stroke="#8497B0" stroke-width="1.33333" stroke-miterlimit="8" stroke-dasharray="10.6667 4" fill="none" fill-rule="evenodd"/><path d="M319.5 604.528C319.5 600.094 323.094 596.5 327.528 596.5L408.472 596.5C412.906 596.5 416.5 600.094 416.5 604.528L416.5 629.472C416.5 633.906 412.906 637.5 408.472 637.5L327.528 637.5C323.094 637.5 319.5 633.906 319.5 629.472Z" stroke="#525252" stroke-width="1.33333" stroke-miterlimit="8" fill="none" fill-rule="evenodd"/><text fill="#FFFFFF" font-family="DengXian,DengXian_MSFontService,sans-serif" font-weight="400" font-size="13.3333" transform="translate(339.681 620)">+ 30 days</text><path d="M341 455.213C341 447.363 347.363 441 355.213 441L380.787 441C388.637 441 395 447.363 395 455.213L395 462.787C395 470.637 388.637 477 380.787 477L355.213 477C347.363 477 341 470.637 341 462.787Z" fill="#333F50" fill-rule="evenodd"/><text fill="#FFFFFF" font-family="DengXian,DengXian_MSFontService,sans-serif" font-weight="400" font-size="14" transform="translate(358.647 464)">Bid</text><path d="M0 0 0.383202 118.369" stroke="#8497B0" stroke-width="0.666667" stroke-miterlimit="8" fill="none" fill-rule="evenodd" transform="matrix(1 0 0 -1 368.5 595.869)"/><path d="M554.5 221.532C554.5 211.573 562.573 203.5 572.532 203.5L927.468 203.5C937.427 203.5 945.5 211.573 945.5 221.532L945.5 283.468C945.5 293.427 937.427 301.5 927.468 301.5L572.532 301.5C562.573 301.5 554.5 293.427 554.5 283.468Z" stroke="#8497B0" stroke-width="1.33333" stroke-miterlimit="8" stroke-dasharray="10.6667 4" fill="none" fill-rule="evenodd"/><path d="M579.5 230.483C579.5 223.865 584.865 218.5 591.483 218.5L651.517 218.5C658.135 218.5 663.5 223.865 663.5 230.483L663.5 276.517C663.5 283.135 658.135 288.5 651.517 288.5L591.483 288.5C584.865 288.5 579.5 283.135 579.5 276.517Z" stroke="#525252" stroke-width="1.33333" stroke-miterlimit="8" fill="#333F50" fill-rule="evenodd"/><text fill="#FFFFFF" font-family="Consolas,Consolas_MSFontService,sans-serif" font-weight="400" font-size="13.3333" transform="translate(591.715 239)">Refund</text><text fill="#FFFFFF" font-family="Consolas,Consolas_MSFontService,sans-serif" font-weight="400" font-size="13.3333" transform="translate(591.715 258)">Request</text><text fill="#FFFFFF" font-family="Consolas,Consolas_MSFontService,sans-serif" font-weight="400" font-size="13.3333" transform="translate(591.715 276)">Period</text><path d="M834.5 228.483C834.5 221.865 839.865 216.5 846.483 216.5L906.517 216.5C913.135 216.5 918.5 221.865 918.5 228.483L918.5 274.517C918.5 281.135 913.135 286.5 906.517 286.5L846.483 286.5C839.865 286.5 834.5 281.135 834.5 274.517Z" stroke="#525252" stroke-width="1.33333" stroke-miterlimit="8" fill="#333F50" fill-rule="evenodd"/><text fill="#FFFFFF" font-family="Consolas,Consolas_MSFontService,sans-serif" font-weight="400" font-size="13.3333" transform="translate(847.466 237)">Refund</text><text fill="#FFFFFF" font-family="Consolas,Consolas_MSFontService,sans-serif" font-weight="400" font-size="13.3333" transform="translate(847.466 256)">Review</text><text fill="#FFFFFF" font-family="Consolas,Consolas_MSFontService,sans-serif" font-weight="400" font-size="13.3333" transform="translate(847.466 274)">Period</text><path d="M106.5 587.83C106.5 581.02 112.02 575.5 118.83 575.5L191.17 575.5C197.98 575.5 203.5 581.02 203.5 587.83L203.5 599.17C203.5 605.98 197.98 611.5 191.17 611.5L118.83 611.5C112.02 611.5 106.5 605.98 106.5 599.17Z" stroke="#525252" stroke-width="1.33333" stroke-miterlimit="8" fill="none" fill-rule="evenodd"/><text fill="#FFFFFF" font-family="DengXian,DengXian_MSFontService,sans-serif" font-weight="400" font-size="13.3333" transform="translate(121.876 589)">+ customer</text><text fill="#FFFFFF" font-family="DengXian,DengXian_MSFontService,sans-serif" font-weight="400" font-size="13.3333" transform="translate(136.043 605)">period</text></g></svg>