<svg width="1280" height="720" xmlns="http://www.w3.org/2000/svg" xmlns:xlink="http://www.w3.org/1999/xlink" overflow="hidden"><defs><filter id="fx0" x="-10%" y="-10%" width="120%" height="120%" filterUnits="userSpaceOnUse" primitiveUnits="userSpaceOnUse"><feComponentTransfer color-interpolation-filters="sRGB"><feFuncR type="discrete" tableValues="0 0"/><feFuncG type="discrete" tableValues="0 0"/><feFuncB type="discrete" tableValues="0 0"/><feFuncA type="linear" slope="0.2" intercept="0"/></feComponentTransfer><feGaussianBlur stdDeviation="2.22222 2.22222"/></filter><filter id="fx1" x="-10%" y="-10%" width="120%" height="120%" filterUnits="userSpaceOnUse" primitiveUnits="userSpaceOnUse"><feComponentTransfer color-interpolation-filters="sRGB"><feFuncR type="discrete" tableValues="0 0"/><feFuncG type="discrete" tableValues="0 0"/><feFuncB type="discrete" tableValues="0 0"/><feFuncA type="linear" slope="0.2" intercept="0"/></feComponentTransfer><feGaussianBlur stdDeviation="2.22222 2.22222"/></filter><filter id="fx2" x="-10%" y="-10%" width="120%" height="120%" filterUnits="userSpaceOnUse" primitiveUnits="userSpaceOnUse"><feComponentTransfer color-interpolation-filters="sRGB"><feFuncR type="discrete" tableValues="0 0"/><feFuncG type="discrete" tableValues="0 0"/><feFuncB type="discrete" tableValues="0 0"/><feFuncA type="linear" slope="0.2" intercept="0"/></feComponentTransfer><feGaussianBlur stdDeviation="2.22222 2.22222"/></filter><filter id="fx3" x="-10%" y="-10%" width="120%" height="120%" filterUnits="userSpaceOnUse" primitiveUnits="userSpaceOnUse"><feComponentTransfer color-interpolation-filters="sRGB"><feFuncR type="discrete" tableValues="0 0"/><feFuncG type="discrete" tableValues="0 0"/><feFuncB type="discrete" tableValues="0 0"/><feFuncA type="linear" slope="0.2" intercept="0"/></feComponentTransfer><feGaussianBlur stdDeviation="2.22222 2.22222"/></filter><filter id="fx4" x="-10%" y="-10%" width="120%" height="120%" filterUnits="userSpaceOnUse" primitiveUnits="userSpaceOnUse"><feComponentTransfer color-interpolation-filters="sRGB"><feFuncR type="discrete" tableValues="0 0"/><feFuncG type="discrete" tableValues="0 0"/><feFuncB type="discrete" tableValues="0 0"/><feFuncA type="linear" slope="0.2" intercept="0"/></feComponentTransfer><feGaussianBlur stdDeviation="2.22222 2.22222"/></filter><filter id="fx5" x="-10%" y="-10%" width="120%" height="120%" filterUnits="userSpaceOnUse" primitiveUnits="userSpaceOnUse"><feComponentTransfer color-interpolation-filters="sRGB"><feFuncR type="discrete" tableValues="0 0"/><feFuncG type="discrete" tableValues="0 0"/><feFuncB type="discrete" tableValues="0 0"/><feFuncA type="linear" slope="0.2" intercept="0"/></feComponentTransfer><feGaussianBlur stdDeviation="2.22222 2.22222"/></filter><filter id="fx6" x="-10%" y="-10%" width="120%" height="120%" filterUnits="userSpaceOnUse" primitiveUnits="userSpaceOnUse"><feComponentTransfer color-interpolation-filters="sRGB"><feFuncR type="discrete" tableValues="0 0"/><feFuncG type="discrete" tableValues="0 0"/><feFuncB type="discrete" tableValues="0 0"/><feFuncA type="linear" slope="0.2" intercept="0"/></feComponentTransfer><feGaussianBlur stdDeviation="2.22222 2.22222"/></filter><filter id="fx7" x="-10%" y="-10%" width="120%" height="120%" filterUnits="userSpaceOnUse" primitiveUnits="userSpaceOnUse"><feComponentTransfer color-interpolation-filters="sRGB"><feFuncR type="discrete" tableValues="0 0"/><feFuncG type="discrete" tableValues="0 0"/><feFuncB type="discrete" tableValues="0 0"/><feFuncA type="linear" slope="0.2" intercept="0"/></feComponentTransfer><feGaussianBlur stdDeviation="2.22222 2.22222"/></filter></defs><g><rect x="0" y="0" width="1280" height="720" fill="#191919"/><path d="M640 138.776 1235.99 138.776 1235.99 185.792 640 185.792Z" fill="#204367" fill-rule="evenodd"/><path d="M640 185.792 752.994 185.792 752.994 234.768 640 234.768Z" fill="#2D3049" fill-rule="evenodd"/><path d="M752.994 185.792 1057.19 185.792 1057.19 234.768 752.994 234.768Z" fill="#2D3049" fill-rule="evenodd"/><path d="M1057.19 185.792 1235.99 185.792 1235.99 234.768 1057.19 234.768Z" fill="#2D3049" fill-rule="evenodd"/><path d="M640 234.768 752.994 234.768 752.994 286.966 640 286.966Z" fill="#526590" fill-rule="evenodd"/><path d="M752.994 234.768 1057.19 234.768 1057.19 286.966 752.994 286.966Z" fill="#526590" fill-rule="evenodd"/><path d="M1057.19 234.768 1235.99 234.768 1235.99 286.966 1057.19 286.966Z" fill="#526590" fill-rule="evenodd"/><path d="M640 286.966 752.994 286.966 752.994 355.532 640 355.532Z" fill="#2D3049" fill-rule="evenodd"/><path d="M752.994 286.966 1057.19 286.966 1057.19 355.532 752.994 355.532Z" fill="#2D3049" fill-rule="evenodd"/><path d="M1057.19 286.966 1235.99 286.966 1235.99 355.532 1057.19 355.532Z" fill="#2D3049" fill-rule="evenodd"/><path d="M640 355.532 752.994 355.532 752.994 404.507 640 404.507Z" fill="#526590" fill-rule="evenodd"/><path d="M752.994 355.532 1057.19 355.532 1057.19 404.507 752.994 404.507Z" fill="#526590" fill-rule="evenodd"/><path d="M1057.19 355.532 1235.99 355.532 1235.99 404.507 1057.19 404.507Z" fill="#526590" fill-rule="evenodd"/><path d="M640 404.507 752.994 404.507 752.994 453.483 640 453.483Z" fill="#2D3049" fill-rule="evenodd"/><path d="M752.994 404.507 1057.19 404.507 1057.19 453.483 752.994 453.483Z" fill="#2D3049" fill-rule="evenodd"/><path d="M1057.19 404.507 1235.99 404.507 1235.99 453.483 1057.19 453.483Z" fill="#2D3049" fill-rule="evenodd"/><path d="M640 453.483 752.994 453.483 752.994 522.048 640 522.048Z" fill="#526590" fill-rule="evenodd"/><path d="M752.994 453.483 1057.19 453.483 1057.19 522.048 752.994 522.048Z" fill="#526590" fill-rule="evenodd"/><path d="M1057.19 453.483 1235.99 453.483 1235.99 522.048 1057.19 522.048Z" fill="#526590" fill-rule="evenodd"/><path d="M640 522.048 752.994 522.048 752.994 589.248 640 589.248Z" fill="#2D3049" fill-rule="evenodd"/><path d="M752.994 522.048 1057.19 522.048 1057.19 589.248 752.994 589.248Z" fill="#2D3049" fill-rule="evenodd"/><path d="M1057.19 522.048 1235.99 522.048 1235.99 589.248 1057.19 589.248Z" fill="#2D3049" fill-rule="evenodd"/><path d="M640 589.248 752.994 589.248 752.994 637.248 640 637.248Z" fill="#526590" fill-rule="evenodd"/><path d="M752.994 589.248 1057.19 589.248 1057.19 637.248 752.994 637.248Z" fill="#526590" fill-rule="evenodd"/><path d="M1057.19 589.248 1235.99 589.248 1235.99 637.248 1057.19 637.248Z" fill="#526590" fill-rule="evenodd"/><path d="M640 637.248 1235.99 637.248" stroke="#000000" stroke-width="1.33333" stroke-linejoin="round" stroke-miterlimit="10" fill="none" fill-rule="evenodd"/><text fill="#FFFFFF" font-family="DengXian,DengXian_MSFontService,sans-serif" font-weight="700" font-size="16" transform="translate(892.244 168)">Token usage</text><text fill="#FFFFFF" font-family="DengXian,DengXian_MSFontService,sans-serif" font-weight="400" font-size="16" transform="translate(1066.79 206)">Two years linear</text><text fill="#FFFFFF" font-family="DengXian,DengXian_MSFontService,sans-serif" font-weight="400" font-size="16" transform="translate(1066.79 225)">unlocking</text><text fill="#FFFFFF" font-family="DengXian,DengXian_MSFontService,sans-serif" font-weight="400" font-size="16" transform="translate(762.594 206)">Team operation, trading pool</text><text fill="#FFFFFF" font-family="DengXian,DengXian_MSFontService,sans-serif" font-weight="400" font-size="16" transform="translate(649.6 206)">Team</text><text fill="#FFFFFF" font-family="DengXian,DengXian_MSFontService,sans-serif" font-weight="400" font-size="16" transform="translate(1066.79 255)">Three years linear</text><text fill="#FFFFFF" font-family="DengXian,DengXian_MSFontService,sans-serif" font-weight="400" font-size="16" transform="translate(1066.79 274)">unlocking</text><g><text fill="#FFFFFF" font-family="DengXian,DengXian_MSFontService,sans-serif" font-weight="400" font-size="16" transform="translate(762.594 255)">DAO member governance rewards, initial</text></g><text fill="#FFFFFF" font-family="DengXian,DengXian_MSFontService,sans-serif" font-weight="400" font-size="16" transform="translate(762.594 274)">community fund</text><text fill="#FFFFFF" font-family="DengXian,DengXian_MSFontService,sans-serif" font-weight="400" font-size="16" transform="translate(649.6 255)">Ecosystem</text><text fill="#FFFFFF" font-family="DengXian,DengXian_MSFontService,sans-serif" font-weight="400" font-size="16" transform="translate(1066.79 307)">Airdrop upon the</text><text fill="#FFFFFF" font-family="DengXian,DengXian_MSFontService,sans-serif" font-weight="400" font-size="16" transform="translate(1066.79 326)">launch of the main</text><text fill="#FFFFFF" font-family="DengXian,DengXian_MSFontService,sans-serif" font-weight="400" font-size="16" transform="translate(1066.79 345)">network</text><text fill="#FFFFFF" font-family="DengXian,DengXian_MSFontService,sans-serif" font-weight="400" font-size="16" transform="translate(762.594 307)">Participating in Test Network Rewards</text><text fill="#FFFFFF" font-family="DengXian,DengXian_MSFontService,sans-serif" font-weight="400" font-size="16" transform="translate(649.6 307)">Airdrop</text><text fill="#FFFFFF" font-family="DengXian,DengXian_MSFontService,sans-serif" font-weight="400" font-size="16" transform="translate(1066.79 375)">Unlock immediately</text><text fill="#FFFFFF" font-family="DengXian,DengXian_MSFontService,sans-serif" font-weight="400" font-size="16" transform="translate(762.594 375)">Directly distributed to each supporter.</text><text fill="#FFFFFF" font-family="DengXian,DengXian_MSFontService,sans-serif" font-weight="400" font-size="16" transform="translate(762.594 394)">On Juicebox</text><text fill="#FFFFFF" font-family="DengXian,DengXian_MSFontService,sans-serif" font-weight="400" font-size="16" transform="translate(649.6 375)">Supporter</text><text fill="#FFFFFF" font-family="DengXian,DengXian_MSFontService,sans-serif" font-weight="400" font-size="16" transform="translate(1066.79 424)">Unlock immediately</text><text fill="#FFFFFF" font-family="DengXian,DengXian_MSFontService,sans-serif" font-weight="400" font-size="16" transform="translate(762.594 424)">Initial liquidity. On Uniswap</text><text fill="#FFFFFF" font-family="DengXian,DengXian_MSFontService,sans-serif" font-weight="400" font-size="16" transform="translate(649.6 424)">Liquidity</text><text fill="#FFFFFF" font-family="DengXian,DengXian_MSFontService,sans-serif" font-weight="400" font-size="16" transform="translate(1066.79 473)">DAO Voting and</text><text fill="#FFFFFF" font-family="DengXian,DengXian_MSFontService,sans-serif" font-weight="400" font-size="16" transform="translate(1066.79 492)">Decision</text><text fill="#FFFFFF" font-family="DengXian,DengXian_MSFontService,sans-serif" font-weight="400" font-size="16" transform="translate(1124.63 492)">-</text><text fill="#FFFFFF" font-family="DengXian,DengXian_MSFontService,sans-serif" font-weight="400" font-size="16" transform="translate(1132.63 492)">Making</text><text fill="#FFFFFF" font-family="DengXian,DengXian_MSFontService,sans-serif" font-weight="400" font-size="16" transform="translate(762.594 473)">The first 100 pieces of genuine and valid</text><text fill="#FFFFFF" font-family="DengXian,DengXian_MSFontService,sans-serif" font-weight="400" font-size="16" transform="translate(762.594 492)">criminal evidence.</text><text fill="#FFFFFF" font-family="DengXian,DengXian_MSFontService,sans-serif" font-weight="400" font-size="16" transform="translate(762.594 511)">Rewards for the minter.</text><text fill="#FFFFFF" font-family="DengXian,DengXian_MSFontService,sans-serif" font-weight="400" font-size="16" transform="translate(649.6 473)">Truth 100</text><path d="M1066.79 529.848 1181.63 529.848 1181.63 545.848 1066.79 545.848Z" fill="#333F50" fill-rule="evenodd"/><path d="M1066.79 548.848 1133.29 548.848 1133.29 564.848 1066.79 564.848Z" fill="#333F50" fill-rule="evenodd"/><text fill="#FFFFFF" font-family="DengXian,DengXian_MSFontService,sans-serif" font-weight="400" font-size="16" transform="translate(1066.79 542)">Two years linear</text><text fill="#FFFFFF" font-family="DengXian,DengXian_MSFontService,sans-serif" font-weight="400" font-size="16" transform="translate(1066.79 561)">unlocking</text><path d="M649.6 529.848 704.433 529.848 704.433 545.848 649.6 545.848Z" fill="#333F50" fill-rule="evenodd"/><text fill="#FFFFFF" font-family="DengXian,DengXian_MSFontService,sans-serif" font-weight="400" font-size="16" transform="translate(649.6 542)">Investor</text><text fill="#FFFFFF" font-family="DengXian,DengXian_MSFontService,sans-serif" font-weight="400" font-size="16" transform="translate(1066.79 609)">Unlock immediately</text><text fill="#FFFFFF" font-family="DengXian,DengXian_MSFontService,sans-serif" font-weight="400" font-size="16" transform="translate(649.6 609)">IDO Sale</text><g><g filter="url(#fx0)" transform="translate(298 203)"><g><path d="M8.04546 7.77017C82.8359 7.77017 149.121 55.9288 172.232 127.059L8.04546 180.406Z" fill="#4472C4" fill-rule="evenodd"/></g></g></g><g><g filter="url(#fx1)" transform="translate(298 320)"><g><path d="M172.149 7.51982C195.261 78.6498 169.942 156.572 109.435 200.533L7.96249 60.8675Z" fill="#ED7D31" fill-rule="evenodd"/></g></g></g><g><g filter="url(#fx2)" transform="translate(246 372)"><g><path d="M162.656 147.687C117.948 180.169 60.3926 189.285 7.83566 172.208L61.1833 8.02118Z" fill="#A5A5A5" fill-rule="evenodd"/></g></g></g><g><g filter="url(#fx3)" transform="translate(208 372)"><g><path d="M47.2144 172.291C33.4414 167.816 20.2862 161.625 8.05883 153.865L100.562 8.10403Z" fill="#FFC000" fill-rule="evenodd"/></g></g></g><g><g filter="url(#fx4)" transform="translate(183 372)"><g><path d="M33.3107 154.046C24.1455 148.23 15.5492 141.562 7.63622 134.131L125.814 8.28467Z" fill="#5B9BD5" fill-rule="evenodd"/></g></g></g><g><g filter="url(#fx5)" transform="translate(141 372)"><g><path d="M50.0512 134.326C31.5265 116.93 17.0707 95.659 7.71581 72.0313L168.229 8.47992Z" fill="#70AD47" fill-rule="evenodd"/></g></g></g><g><g filter="url(#fx6)" transform="translate(129 373)"><g><path d="M19.8346 71.6424C11.8248 51.4118 7.71151 29.8494 7.71151 8.09082L180.348 8.09065Z" fill="#264478" fill-rule="evenodd"/></g></g></g><g><g filter="url(#fx7)" transform="translate(129 203)"><g><path d="M7.71158 180.406C7.71158 85.062 85.0034 7.77017 180.348 7.77017L180.348 180.406Z" fill="#9E480E" fill-rule="evenodd"/></g></g></g><g><path d="M307.655 212.463C380.979 212.463 445.964 259.677 468.622 329.412L307.655 381.714Z" fill="#4472C4" fill-rule="evenodd"/></g><g><path d="M468.622 329.412C491.281 399.147 466.459 475.542 407.138 518.641L307.655 381.714Z" fill="#ED7D31" fill-rule="evenodd"/></g><g><path d="M407.138 518.641C363.307 550.486 306.88 559.423 255.354 542.681L307.655 381.714Z" fill="#A5A5A5" fill-rule="evenodd"/></g><g><path d="M255.354 542.681C241.851 538.294 228.953 532.225 216.966 524.617L307.655 381.714Z" fill="#FFC000" fill-rule="evenodd"/></g><g><path d="M216.966 524.617C207.98 518.915 199.553 512.378 191.795 505.092L307.655 381.714Z" fill="#5B9BD5" fill-rule="evenodd"/></g><g><path d="M191.795 505.092C173.633 488.037 159.461 467.183 150.289 444.019L307.655 381.714Z" fill="#70AD47" fill-rule="evenodd"/></g><g><path d="M150.289 444.019C142.437 424.185 138.404 403.046 138.404 381.714L307.655 381.714Z" fill="#264478" fill-rule="evenodd"/></g><g><path d="M138.404 381.714C138.404 288.239 214.18 212.463 307.655 212.463L307.655 381.714Z" fill="#9E480E" fill-rule="evenodd"/></g><g><path d="M407.5 244.5 447.5 203.5 453.5 203.5" stroke="#A6A6A6" stroke-linejoin="round" stroke-miterlimit="10" fill="none"/></g><g><text fill="#FFFFFF" font-family="DengXian,DengXian_MSFontService,sans-serif" font-weight="700" font-size="17.7333" transform="translate(422.214 180)">Unallocated</text></g><g><text fill="#FFFFFF" font-family="DengXian,DengXian_MSFontService,sans-serif" font-weight="700" font-size="17.7333" transform="translate(455.947 204)">20%</text></g><g><text fill="#FFFFFF" font-family="DengXian,DengXian_MSFontService,sans-serif" font-weight="700" font-size="17.7333" transform="translate(481.719 438)">Ecosystem</text></g><g><text fill="#FFFFFF" font-family="DengXian,DengXian_MSFontService,sans-serif" font-weight="700" font-size="17.7333" transform="translate(509.413 462)">20%</text></g><g><text fill="#FFFFFF" font-family="DengXian,DengXian_MSFontService,sans-serif" font-weight="700" font-size="17.7333" transform="translate(326.035 564)">Team</text></g><g><text fill="#FFFFFF" font-family="DengXian,DengXian_MSFontService,sans-serif" font-weight="700" font-size="17.7333" transform="translate(333.842 588)">15%</text></g><g><text fill="#FFFFFF" font-family="DengXian,DengXian_MSFontService,sans-serif" font-weight="700" font-size="17.7333" transform="translate(197.602 561)">Airdrop</text></g><g><text fill="#FFFFFF" font-family="DengXian,DengXian_MSFontService,sans-serif" font-weight="700" font-size="17.7333" transform="translate(219.062 585)">4%</text></g><g><text fill="#FFFFFF" font-family="DengXian,DengXian_MSFontService,sans-serif" font-weight="700" font-size="18.6667" transform="translate(120.47 541)">Liquidity</text></g><g><text fill="#FFFFFF" font-family="DengXian,DengXian_MSFontService,sans-serif" font-weight="700" font-size="17.7333" transform="translate(147.797 565)">3%</text></g><g><text fill="#FFFFFF" font-family="DengXian,DengXian_MSFontService,sans-serif" font-weight="700" font-size="17.7333" transform="translate(77.8618 491)">Truth 100</text></g><g><text fill="#FFFFFF" font-family="DengXian,DengXian_MSFontService,sans-serif" font-weight="700" font-size="17.7333" transform="translate(107.422 515)">7%</text></g><g><text fill="#FFFFFF" font-family="DengXian,DengXian_MSFontService,sans-serif" font-weight="700" font-size="17.7333" transform="translate(59.0588 413)">IDO Sale</text></g><g><text fill="#FFFFFF" font-family="DengXian,DengXian_MSFontService,sans-serif" font-weight="700" font-size="17.7333" transform="translate(84.2655 437)">6%</text></g><g><text fill="#FFFFFF" font-family="DengXian,DengXian_MSFontService,sans-serif" font-weight="700" font-size="17.7333" transform="translate(112.033 224)">Investor</text></g><g><text fill="#FFFFFF" font-family="DengXian,DengXian_MSFontService,sans-serif" font-weight="700" font-size="17.7333" transform="translate(130.319 248)">25%</text></g><text fill="#FFFFFF" font-family="DengXian,DengXian_MSFontService,sans-serif" font-weight="700" font-size="24" transform="translate(549.833 55)">Token allocation</text></g></svg>