<svg width="1280" height="720" xmlns="http://www.w3.org/2000/svg" xmlns:xlink="http://www.w3.org/1999/xlink" overflow="hidden"><g><rect x="0" y="0" width="1280" height="720" fill="#191919"/><path d="M558 202.596C558 184.594 572.594 170 590.596 170L759.404 170C777.406 170 792 184.594 792 202.596L792 553.404C792 571.406 777.406 586 759.404 586L590.596 586C572.594 586 558 571.406 558 553.404Z" stroke="#BF9000" stroke-width="2" stroke-miterlimit="8" stroke-dasharray="8 6" fill="none" fill-rule="evenodd"/><text fill="#FFFFFF" font-family="DengXian,DengXian_MSFontService,sans-serif" font-weight="700" font-size="24" transform="translate(543.833 71)">Exchange</text><text fill="#FFFFFF" font-family="DengXian,DengXian_MSFontService,sans-serif" font-weight="700" font-size="24" transform="translate(654.167 71)">Process</text><path d="M372.5 304.667C372.5 300.709 375.709 297.5 379.667 297.5L444.333 297.5C448.291 297.5 451.5 300.709 451.5 304.667L451.5 333.333C451.5 337.291 448.291 340.5 444.333 340.5L379.667 340.5C375.709 340.5 372.5 337.291 372.5 333.333Z" stroke="#8FAADC" stroke-width="1.33333" stroke-miterlimit="8" fill="#7030A0" fill-rule="evenodd"/><text fill="#FFFFFF" font-family="DengXian,DengXian_MSFontService,sans-serif" font-weight="400" font-size="18.6667" transform="translate(385.066 324)">Minter</text><path d="M376.5 480.5C376.5 476.634 379.634 473.5 383.5 473.5L448.5 473.5C452.366 473.5 455.5 476.634 455.5 480.5L455.5 508.5C455.5 512.366 452.366 515.5 448.5 515.5L383.5 515.5C379.634 515.5 376.5 512.366 376.5 508.5Z" stroke="#8497B0" stroke-width="1.33333" stroke-miterlimit="8" fill="#4C1452" fill-rule="evenodd"/><text fill="#FFFFFF" font-family="DengXian,DengXian_MSFontService,sans-serif" font-weight="400" font-size="18.6667" transform="translate(393.056 500)">Buyer</text><path d="M595.5 355.667C595.5 351.156 599.156 347.5 603.667 347.5L739.333 347.5C743.844 347.5 747.5 351.156 747.5 355.667L747.5 388.333C747.5 392.844 743.844 396.5 739.333 396.5L603.667 396.5C599.156 396.5 595.5 392.844 595.5 388.333Z" stroke="#8497B0" stroke-width="1.33333" stroke-miterlimit="8" fill="#392E62" fill-rule="evenodd"/><text fill="#FFFFFF" font-family="DengXian,DengXian_MSFontService,sans-serif" font-weight="400" font-size="21.3333" transform="translate(627.939 379)">Exchange</text><path d="M895 469C895 465.134 898.134 462 902 462L996 462C999.866 462 1003 465.134 1003 469L1003 497C1003 500.866 999.866 504 996 504L902 504C898.134 504 895 500.866 895 497Z" stroke="#7030A0" stroke-width="2" stroke-miterlimit="8" stroke-dasharray="8 6" fill="#5736A8" fill-rule="evenodd"/><text fill="#FFFFFF" font-family="DengXian,DengXian_MSFontService,sans-serif" font-weight="400" font-size="18.6667" transform="translate(907.195 489)">Completer</text><path d="M878 237.667C878 221.835 890.835 209 906.667 209L1069.33 209C1085.17 209 1098 221.835 1098 237.667L1098 352.333C1098 368.165 1085.17 381 1069.33 381L906.667 381C890.835 381 878 368.165 878 352.333Z" stroke="#533E86" stroke-width="2" stroke-miterlimit="8" stroke-dasharray="8 6" fill="none" fill-rule="evenodd"/><path d="M878 464.334C878 451.999 887.999 442 900.334 442L1052.67 442C1065 442 1075 451.999 1075 464.334L1075 553.666C1075 566.001 1065 576 1052.67 576L900.334 576C887.999 576 878 566.001 878 553.666Z" stroke="#533E86" stroke-width="2" stroke-miterlimit="8" stroke-dasharray="8 6" fill="none" fill-rule="evenodd"/><path d="M595.5 495.667C595.5 491.156 599.156 487.5 603.667 487.5L739.333 487.5C743.844 487.5 747.5 491.156 747.5 495.667L747.5 528.333C747.5 532.844 743.844 536.5 739.333 536.5L603.667 536.5C599.156 536.5 595.5 532.844 595.5 528.333Z" stroke="#8497B0" stroke-width="1.33333" stroke-miterlimit="8" fill="#392E62" fill-rule="evenodd"/><text fill="#FFFFFF" font-family="DengXian,DengXian_MSFontService,sans-serif" font-weight="400" font-size="14.6667" transform="translate(629.189 517)">Fund Manger</text><path d="M0-0.333333 73.439-0.333333 73.439 76.0822 73.1057 75.7489 139.545 75.7489 139.545 76.4155 72.7723 76.4155 72.7723 0 73.1057 0.333333 0 0.333333ZM138.211 72.0822 146.211 76.0822 138.211 80.0822Z" fill="#8497B0" transform="matrix(-1 1.22465e-16 1.22465e-16 1 893.711 295.5)"/><path d="M198 466.502C198 453.522 208.522 443 221.502 443L445.498 443C458.478 443 469 453.522 469 466.502L469 596.498C469 609.478 458.478 620 445.498 620L221.502 620C208.522 620 198 609.478 198 596.498Z" stroke="#533E86" stroke-width="2" stroke-miterlimit="8" stroke-dasharray="8 6" fill="none" fill-rule="evenodd"/><path d="M192 199.551C192 184.887 203.887 173 218.551 173L446.449 173C461.113 173 473 184.887 473 199.551L473 348.449C473 363.113 461.113 375 446.449 375L218.551 375C203.887 375 192 363.113 192 348.449Z" stroke="#533E86" stroke-width="2" stroke-miterlimit="8" stroke-dasharray="8 6" fill="none" fill-rule="evenodd"/><path d="M473.5 274.167 532.169 274.167 532.169 372.324 531.836 371.99 589.152 371.99 589.152 372.657 531.503 372.657 531.503 274.5 531.836 274.833 473.5 274.833ZM587.818 368.324 595.818 372.324 587.818 376.324Z" fill="#8497B0"/><path d="M0-0.333333 63.5552-0.333333 63.5552 159.817 63.2218 159.483 119.777 159.483 119.777 160.15 62.8885 160.15 62.8885 0 63.2218 0.333333 0 0.333333ZM118.444 155.817 126.444 159.817 118.444 163.817Z" fill="#8497B0" transform="matrix(1 0 0 -1 469.5 532.317)"/><path d="M895.538 483.344 821.186 483.344 821.186 389.5 821.519 389.833 754.167 389.833 754.167 389.167 821.852 389.167 821.852 483.01 821.519 482.677 895.538 482.677ZM755.5 393.5 747.5 389.5 755.5 385.5Z" fill="#8497B0"/><text fill="#F2F2F2" font-family="DengXian,DengXian_MSFontService,sans-serif" font-weight="400" font-size="14.6667" transform="translate(208.539 309)">1.</text><text fill="#F2F2F2" font-family="DengXian,DengXian_MSFontService,sans-serif" font-weight="400" font-size="14.6667" transform="translate(232.539 309)">Sell / Auction</text><text fill="#F2F2F2" font-family="DengXian,DengXian_MSFontService,sans-serif" font-weight="400" font-size="14.6667" transform="translate(208.539 344)">5: Agree Refund</text><text fill="#F2F2F2" font-family="DengXian,DengXian_MSFontService,sans-serif" font-weight="400" font-size="14.6667" transform="translate(216.384 473)">2, Buy / Bid</text><text fill="#F2F2F2" font-family="DengXian,DengXian_MSFontService,sans-serif" font-weight="400" font-size="14.6667" transform="translate(216.384 508)">3. Complete Order</text><text fill="#F2F2F2" font-family="DengXian,DengXian_MSFontService,sans-serif" font-weight="400" font-size="14.6667" transform="translate(216.384 543)">4, Request Refund</text><text fill="#F2F2F2" font-family="DengXian,DengXian_MSFontService,sans-serif" font-weight="400" font-size="14.6667" transform="translate(216.384 578)">6, Pay Confidentiality Fee</text><text fill="#F2F2F2" font-family="DengXian,DengXian_MSFontService,sans-serif" font-weight="400" font-size="14.6667" transform="translate(896.354 360)">5, Review (Agree/Refuse)</text><text fill="#F2F2F2" font-family="DengXian,DengXian_MSFontService,sans-serif" font-weight="400" font-size="14.6667" transform="translate(895.579 532)">3. Complete Order</text><path d="M671.833 396.5 671.833 481.181 671.167 481.181 671.167 396.5ZM675.5 479.847 671.5 487.847 667.5 479.847Z" fill="#8497B0"/><path d="M597.5 456.313C597.5 448.684 603.684 442.5 611.313 442.5L653.687 442.5C661.316 442.5 667.5 448.684 667.5 456.313L667.5 458.687C667.5 466.316 661.316 472.5 653.687 472.5L611.313 472.5C603.684 472.5 597.5 466.316 597.5 458.687Z" stroke="#FFC000" stroke-width="1.33333" stroke-linecap="square" stroke-miterlimit="8" stroke-dasharray="4 1.33333" fill="none" fill-rule="evenodd"/><text fill="#DAE3F3" font-family="DengXian,DengXian_MSFontService,sans-serif" font-weight="400" font-size="14.6667" transform="translate(611.007 463)">Token</text><path d="M372 217C372 213.134 375.134 210 379 210L444 210C447.866 210 451 213.134 451 217L451 245C451 248.866 447.866 252 444 252L379 252C375.134 252 372 248.866 372 245Z" stroke="#7030A0" stroke-width="2" stroke-miterlimit="8" stroke-dasharray="8 6" fill="#5736A8" fill-rule="evenodd"/><text fill="#FFFFFF" font-family="DengXian,DengXian_MSFontService,sans-serif" font-weight="400" font-size="18.6667" transform="translate(389.566 237)">Seller</text><path d="M257.5 215.729C257.5 201.243 269.243 189.5 283.729 189.5L436.272 189.5C450.757 189.5 462.5 201.243 462.5 215.729L462.5 248.271C462.5 262.757 450.757 274.5 436.272 274.5L283.729 274.5C269.243 274.5 257.5 262.757 257.5 248.271Z" stroke="#533E86" stroke-width="1.33333" stroke-miterlimit="8" stroke-dasharray="5.33333 4" fill="none" fill-rule="evenodd"/><path d="M894.5 281.667C894.5 277.709 897.709 274.5 901.667 274.5L987.333 274.5C991.291 274.5 994.5 277.709 994.5 281.667L994.5 310.333C994.5 314.291 991.291 317.5 987.333 317.5L901.667 317.5C897.709 317.5 894.5 314.291 894.5 310.333Z" stroke="#8FAADC" stroke-width="1.33333" stroke-miterlimit="8" fill="#4B2DCD" fill-rule="evenodd"/><text fill="#FFFFFF" font-family="DengXian,DengXian_MSFontService,sans-serif" font-weight="400" font-size="21.3333" transform="translate(921.878 303)">DAO</text><text fill="#C55A11" font-family="DengXian,DengXian_MSFontService,sans-serif" font-weight="400" font-size="14.6667" transform="translate(275.028 227)">Out of the</text><text fill="#C55A11" font-family="DengXian,DengXian_MSFontService,sans-serif" font-weight="400" font-size="14.6667" transform="translate(275.028 244)">deadline</text><path d="M613.5 204.667C613.5 201.261 616.261 198.5 619.667 198.5L724.333 198.5C727.739 198.5 730.5 201.261 730.5 204.667L730.5 229.333C730.5 232.739 727.739 235.5 724.333 235.5L619.667 235.5C616.261 235.5 613.5 232.739 613.5 229.333Z" stroke="#8497B0" stroke-width="1.33333" stroke-miterlimit="8" fill="#392E62" fill-rule="evenodd"/><text fill="#FFFFFF" font-family="DengXian,DengXian_MSFontService,sans-serif" font-weight="400" font-size="18.6667" transform="translate(632.855 223)">Truth Box</text><path d="M0.333333-3.13139e-07 0.333432 105.091-0.333235 105.091-0.333333 3.13139e-07ZM4.0001 103.757 0.000104987 111.757-3.9999 103.757Z" fill="#8497B0" transform="matrix(1 0 0 -1 671.5 347.257)"/><path d="M678.5 268.023C678.5 260.002 685.002 253.5 693.023 253.5L747.977 253.5C755.998 253.5 762.5 260.002 762.5 268.023L762.5 302.977C762.5 310.998 755.998 317.5 747.977 317.5L693.023 317.5C685.002 317.5 678.5 310.998 678.5 302.977Z" stroke="#FFC000" stroke-width="1.33333" stroke-miterlimit="8" stroke-dasharray="5.33333 4" fill="none" fill-rule="evenodd"/><text fill="#A6A6A6" font-family="DengXian,DengXian_MSFontService,sans-serif" font-weight="400" font-size="14.6667" transform="translate(691.76 272)">Status,</text><text fill="#A6A6A6" font-family="DengXian,DengXian_MSFontService,sans-serif" font-weight="400" font-size="14.6667" transform="translate(691.76 289)">price,</text><text fill="#A6A6A6" font-family="DengXian,DengXian_MSFontService,sans-serif" font-weight="400" font-size="14.6667" transform="translate(691.76 307)">deadline</text><text fill="#C55A11" font-family="DengXian,DengXian_MSFontService,sans-serif" font-weight="400" font-size="14.6667" transform="translate(938.541 560)">Out of the deadline</text><g><g><g><path d="M1074.56 297.271C1074.56 298.709 1073.4 299.875 1071.96 299.875 1070.52 299.875 1069.35 298.709 1069.35 297.271 1069.35 295.833 1070.52 294.667 1071.96 294.667 1073.4 294.667 1074.56 295.833 1074.56 297.271Z" fill="#532CE2"/><path d="M1086.02 297.271C1086.02 298.709 1084.85 299.875 1083.42 299.875 1081.98 299.875 1080.81 298.709 1080.81 297.271 1080.81 295.833 1081.98 294.667 1083.42 294.667 1084.85 294.667 1086.02 295.833 1086.02 297.271Z" fill="#532CE2"/><path d="M1051.65 297.271C1051.65 298.709 1050.48 299.875 1049.04 299.875 1047.6 299.875 1046.44 298.709 1046.44 297.271 1046.44 295.833 1047.6 294.667 1049.04 294.667 1050.48 294.667 1051.65 295.833 1051.65 297.271Z" fill="#532CE2"/><path d="M1063.1 297.271C1063.1 298.709 1061.94 299.875 1060.5 299.875 1059.06 299.875 1057.9 298.709 1057.9 297.271 1057.9 295.833 1059.06 294.667 1060.5 294.667 1061.94 294.667 1063.1 295.833 1063.1 297.271Z" fill="#532CE2"/><path d="M1028.73 297.271C1028.73 298.709 1027.56 299.875 1026.12 299.875 1024.69 299.875 1023.52 298.709 1023.52 297.271 1023.52 295.833 1024.69 294.667 1026.12 294.667 1027.56 294.667 1028.73 295.833 1028.73 297.271Z" fill="#532CE2"/><path d="M1040.19 297.271C1040.19 298.709 1039.02 299.875 1037.58 299.875 1036.15 299.875 1034.98 298.709 1034.98 297.271 1034.98 295.833 1036.15 294.667 1037.58 294.667 1039.02 294.667 1040.19 295.833 1040.19 297.271Z" fill="#532CE2"/><path d="M1017.27 297.271C1017.27 298.709 1016.1 299.875 1014.67 299.875 1013.23 299.875 1012.06 298.709 1012.06 297.271 1012.06 295.833 1013.23 294.667 1014.67 294.667 1016.1 294.667 1017.27 295.833 1017.27 297.271Z" fill="#532CE2"/><path d="M1090.16 310.979 1088.15 303.396C1088.08 303.181 1087.98 302.983 1087.83 302.812 1087.15 302.098 1086.3 301.559 1085.36 301.24 1084.74 301.006 1084.08 300.896 1083.42 300.917 1082.76 300.915 1082.1 301.025 1081.48 301.24 1080.53 301.555 1079.68 302.099 1079 302.823 1078.87 302.999 1078.77 303.197 1078.71 303.406L1077.67 307.281 1076.62 303.438C1076.57 303.223 1076.47 303.024 1076.32 302.854 1075.63 302.14 1074.78 301.601 1073.84 301.281 1073.24 301.039 1072.6 300.916 1071.96 300.917 1071.3 300.917 1070.64 301.026 1070.02 301.24 1069.08 301.553 1068.23 302.097 1067.55 302.823 1067.42 302.996 1067.31 303.194 1067.25 303.406L1066.23 307.167 1065.19 303.396C1065.13 303.181 1065.02 302.983 1064.88 302.812 1064.19 302.098 1063.34 301.559 1062.41 301.24 1061.8 301.011 1061.15 300.901 1060.5 300.917 1059.84 300.915 1059.19 301.025 1058.56 301.24 1057.62 301.555 1056.77 302.099 1056.08 302.823 1055.95 302.999 1055.85 303.197 1055.79 303.406L1054.75 307.281 1053.71 303.438C1053.65 303.223 1053.55 303.024 1053.41 302.854 1052.72 302.14 1051.87 301.601 1050.93 301.281 1050.33 301.039 1049.69 300.916 1049.04 300.917 1048.38 300.917 1047.73 301.026 1047.1 301.24 1046.16 301.553 1045.31 302.097 1044.64 302.823 1044.5 302.996 1044.4 303.194 1044.33 303.406L1043.31 307.167 1042.27 303.396C1042.21 303.181 1042.1 302.983 1041.96 302.812 1041.27 302.098 1040.43 301.559 1039.49 301.24 1038.88 301.011 1038.23 300.901 1037.58 300.917 1036.92 300.915 1036.27 301.025 1035.65 301.24 1034.7 301.555 1033.85 302.099 1033.17 302.823 1033.04 302.999 1032.94 303.197 1032.88 303.406L1031.83 307.281 1030.79 303.438C1030.74 303.223 1030.63 303.024 1030.49 302.854 1029.8 302.14 1028.95 301.601 1028.01 301.281 1027.41 301.039 1026.77 300.916 1026.12 300.917 1025.47 300.917 1024.81 301.026 1024.19 301.24 1023.25 301.553 1022.4 302.097 1021.72 302.823 1021.58 302.996 1021.48 303.194 1021.42 303.406L1020.4 307.167 1019.35 303.396C1019.29 303.181 1019.19 302.983 1019.04 302.812 1018.36 302.098 1017.51 301.559 1016.57 301.24 1015.96 301.011 1015.32 300.901 1014.67 300.917 1014.01 300.915 1013.35 301.025 1012.73 301.24 1011.78 301.555 1010.93 302.099 1010.25 302.823 1010.12 302.999 1010.02 303.197 1009.96 303.406L1007.95 310.979C1007.84 311.543 1008.2 312.092 1008.77 312.205 1009.28 312.308 1009.79 312.01 1009.96 311.51L1011.54 305.542 1011.54 308.812 1009.75 315.5 1011.54 315.5 1011.54 323.833 1013.62 323.833 1013.62 315.5 1015.71 315.5 1015.71 323.833 1017.79 323.833 1017.79 315.5 1019.58 315.5 1017.79 308.812 1017.79 305.469 1019.39 311.51C1019.53 312.068 1020.09 312.408 1020.65 312.268 1021.02 312.174 1021.31 311.883 1021.41 311.51L1023 305.469 1023 323.833 1025.08 323.833 1025.08 312.375 1027.17 312.375 1027.17 323.833 1029.25 323.833 1029.25 305.531 1030.83 311.51C1030.83 312.086 1031.3 312.552 1031.88 312.552 1032.45 312.552 1032.92 312.086 1032.92 311.51L1034.46 305.531 1034.46 308.812 1032.67 315.5 1034.46 315.5 1034.46 323.833 1036.54 323.833 1036.54 315.5 1038.62 315.5 1038.62 323.833 1040.71 323.833 1040.71 315.5 1042.5 315.5 1040.71 308.812 1040.71 305.469 1042.3 311.51C1042.44 312.068 1043.01 312.408 1043.57 312.268 1043.94 312.174 1044.23 311.883 1044.32 311.51L1045.92 305.469 1045.92 323.833 1048 323.833 1048 312.375 1050.08 312.375 1050.08 323.833 1052.17 323.833 1052.17 305.531 1053.75 311.51C1053.75 312.086 1054.22 312.552 1054.79 312.552 1055.37 312.552 1055.83 312.086 1055.83 311.51L1057.38 305.531 1057.38 308.812 1055.58 315.5 1057.38 315.5 1057.38 323.833 1059.46 323.833 1059.46 315.5 1061.54 315.5 1061.54 323.833 1063.62 323.833 1063.62 315.5 1065.42 315.5 1063.62 308.812 1063.62 305.469 1065.22 311.51C1065.36 312.068 1065.92 312.408 1066.48 312.268 1066.86 312.174 1067.15 311.883 1067.24 311.51L1068.83 305.469 1068.83 323.833 1070.92 323.833 1070.92 312.375 1073 312.375 1073 323.833 1075.08 323.833 1075.08 305.531 1076.67 311.51C1076.67 312.086 1077.13 312.552 1077.71 312.552 1078.28 312.552 1078.75 312.086 1078.75 311.51L1080.29 305.531 1080.29 308.812 1078.5 315.5 1080.29 315.5 1080.29 323.833 1082.38 323.833 1082.38 315.5 1084.46 315.5 1084.46 323.833 1086.54 323.833 1086.54 315.5 1088.33 315.5 1086.54 308.812 1086.54 305.469 1088.14 311.51C1088.26 311.978 1088.69 312.298 1089.18 312.281 1089.75 312.265 1090.21 311.786 1090.19 311.211 1090.19 311.133 1090.18 311.055 1090.16 310.979Z" fill="#532CE2"/><path d="M1071.96 268.625C1073.4 268.625 1074.56 267.459 1074.56 266.021 1074.56 264.583 1073.4 263.417 1071.96 263.417 1070.52 263.417 1069.35 264.583 1069.35 266.021 1069.35 267.459 1070.52 268.625 1071.96 268.625Z" fill="#532CE2"/><path d="M1049.04 268.625C1050.48 268.625 1051.65 267.459 1051.65 266.021 1051.65 264.583 1050.48 263.417 1049.04 263.417 1047.6 263.417 1046.44 264.583 1046.44 266.021 1046.44 267.459 1047.6 268.625 1049.04 268.625Z" fill="#532CE2"/><path d="M1060.5 268.625C1061.94 268.625 1063.1 267.459 1063.1 266.021 1063.1 264.583 1061.94 263.417 1060.5 263.417 1059.06 263.417 1057.9 264.583 1057.9 266.021 1057.9 267.459 1059.06 268.625 1060.5 268.625Z" fill="#532CE2"/><path d="M1026.12 268.625C1027.56 268.625 1028.73 267.459 1028.73 266.021 1028.73 264.583 1027.56 263.417 1026.12 263.417 1024.69 263.417 1023.52 264.583 1023.52 266.021 1023.52 267.459 1024.69 268.625 1026.12 268.625Z" fill="#532CE2"/><path d="M1037.58 268.625C1039.02 268.625 1040.19 267.459 1040.19 266.021 1040.19 264.583 1039.02 263.417 1037.58 263.417 1036.15 263.417 1034.98 264.583 1034.98 266.021 1034.98 267.459 1036.15 268.625 1037.58 268.625Z" fill="#532CE2"/><path d="M1078.68 279.729 1076.67 272.146C1076.61 271.931 1076.51 271.732 1076.36 271.562 1075.67 270.849 1074.82 270.31 1073.89 269.99 1073.27 269.757 1072.62 269.647 1071.96 269.667 1071.3 269.667 1070.64 269.776 1070.02 269.99 1069.08 270.303 1068.23 270.847 1067.55 271.573 1067.42 271.746 1067.31 271.944 1067.25 272.156L1066.23 275.917 1065.19 272.146C1065.13 271.931 1065.02 271.733 1064.88 271.562 1064.19 270.848 1063.34 270.309 1062.41 269.99 1061.8 269.761 1061.15 269.651 1060.5 269.667 1059.84 269.665 1059.19 269.775 1058.56 269.99 1057.62 270.305 1056.77 270.849 1056.08 271.573 1055.95 271.749 1055.85 271.947 1055.79 272.156L1054.75 276.031 1053.71 272.188C1053.65 271.973 1053.55 271.774 1053.41 271.604 1052.72 270.89 1051.87 270.351 1050.93 270.031 1050.33 269.789 1049.69 269.666 1049.04 269.667 1048.38 269.667 1047.73 269.776 1047.1 269.99 1046.16 270.303 1045.31 270.847 1044.64 271.573 1044.5 271.746 1044.4 271.944 1044.33 272.156L1043.31 275.917 1042.27 272.146C1042.21 271.931 1042.1 271.733 1041.96 271.562 1041.27 270.848 1040.43 270.309 1039.49 269.99 1038.88 269.761 1038.23 269.651 1037.58 269.667 1036.92 269.665 1036.27 269.775 1035.65 269.99 1034.7 270.305 1033.85 270.849 1033.17 271.573 1033.04 271.749 1032.94 271.947 1032.88 272.156L1031.83 276.031 1030.79 272.188C1030.74 271.973 1030.63 271.774 1030.49 271.604 1029.8 270.89 1028.95 270.351 1028.01 270.031 1027.41 269.789 1026.77 269.666 1026.12 269.667 1025.47 269.667 1024.81 269.776 1024.19 269.99 1023.25 270.303 1022.4 270.847 1021.72 271.573 1021.58 271.746 1021.48 271.944 1021.42 272.156L1019.4 279.771C1019.25 280.326 1019.58 280.894 1020.14 281.042L1020.41 281.042C1020.89 281.058 1021.32 280.739 1021.45 280.271L1023 274.219 1023 292.583 1025.08 292.583 1025.08 281.125 1027.17 281.125 1027.17 292.583 1029.25 292.583 1029.25 274.281 1030.83 280.26C1030.83 280.836 1031.3 281.302 1031.88 281.302 1032.45 281.302 1032.92 280.836 1032.92 280.26L1034.46 274.281 1034.46 277.562 1032.67 284.25 1034.46 284.25 1034.46 292.583 1036.54 292.583 1036.54 284.25 1038.62 284.25 1038.62 292.583 1040.71 292.583 1040.71 284.25 1042.5 284.25 1040.71 277.562 1040.71 274.219 1042.3 280.26C1042.44 280.818 1043.01 281.158 1043.57 281.018 1043.94 280.924 1044.23 280.633 1044.32 280.26L1045.92 274.219 1045.92 292.583 1048 292.583 1048 281.125 1050.08 281.125 1050.08 292.583 1052.17 292.583 1052.17 274.281 1053.75 280.26C1053.75 280.836 1054.22 281.302 1054.79 281.302 1055.37 281.302 1055.83 280.836 1055.83 280.26L1057.38 274.281 1057.38 277.562 1055.58 284.25 1057.38 284.25 1057.38 292.583 1059.46 292.583 1059.46 284.25 1061.54 284.25 1061.54 292.583 1063.62 292.583 1063.62 284.25 1065.42 284.25 1063.62 277.562 1063.62 274.219 1065.22 280.26C1065.36 280.818 1065.92 281.158 1066.48 281.018 1066.86 280.924 1067.15 280.633 1067.24 280.26L1068.83 274.219 1068.83 292.583 1070.92 292.583 1070.92 281.125 1073 281.125 1073 292.583 1075.08 292.583 1075.08 274.281 1076.67 280.26C1076.79 280.728 1077.22 281.048 1077.71 281.031 1077.8 281.041 1077.89 281.041 1077.98 281.031 1078.53 280.866 1078.84 280.286 1078.68 279.735 1078.68 279.733 1078.68 279.731 1078.68 279.729Z" fill="#532CE2"/><path d="M1049.04 237.375C1050.48 237.375 1051.65 236.209 1051.65 234.771 1051.65 233.333 1050.48 232.167 1049.04 232.167 1047.6 232.167 1046.44 233.333 1046.44 234.771 1046.44 236.209 1047.6 237.375 1049.04 237.375Z" fill="#532CE2"/><path d="M1060.5 237.375C1061.94 237.375 1063.1 236.209 1063.1 234.771 1063.1 233.333 1061.94 232.167 1060.5 232.167 1059.06 232.167 1057.9 233.333 1057.9 234.771 1057.9 236.209 1059.06 237.375 1060.5 237.375Z" fill="#532CE2"/><path d="M1037.58 237.375C1039.02 237.375 1040.19 236.209 1040.19 234.771 1040.19 233.333 1039.02 232.167 1037.58 232.167 1036.15 232.167 1034.98 233.333 1034.98 234.771 1034.98 236.209 1036.15 237.375 1037.58 237.375Z" fill="#532CE2"/><path d="M1067.24 248.479 1065.23 240.896C1065.17 240.681 1065.06 240.483 1064.92 240.312 1064.23 239.598 1063.38 239.059 1062.45 238.74 1061.83 238.506 1061.16 238.396 1060.5 238.417 1059.84 238.415 1059.19 238.525 1058.56 238.74 1057.62 239.055 1056.77 239.599 1056.08 240.323 1055.95 240.499 1055.85 240.697 1055.79 240.906L1054.75 244.781 1053.71 240.938C1053.65 240.723 1053.55 240.524 1053.41 240.354 1052.72 239.64 1051.87 239.101 1050.93 238.781 1050.33 238.539 1049.69 238.415 1049.04 238.417 1048.38 238.417 1047.73 238.526 1047.1 238.74 1046.16 239.053 1045.31 239.597 1044.64 240.323 1044.5 240.496 1044.4 240.694 1044.33 240.906L1043.31 244.667 1042.27 240.896C1042.21 240.681 1042.1 240.483 1041.96 240.312 1041.27 239.598 1040.43 239.059 1039.49 238.74 1038.88 238.511 1038.23 238.401 1037.58 238.417 1036.92 238.415 1036.27 238.525 1035.65 238.74 1034.7 239.055 1033.85 239.599 1033.17 240.323 1033.04 240.499 1032.94 240.697 1032.88 240.906L1030.85 248.521C1030.71 249.076 1031.04 249.644 1031.59 249.792 1031.68 249.802 1031.77 249.802 1031.86 249.792 1032.35 249.808 1032.78 249.489 1032.91 249.021L1034.46 243.031 1034.46 246.312 1032.67 253 1034.46 253 1034.46 261.333 1036.54 261.333 1036.54 253 1038.62 253 1038.62 261.333 1040.71 261.333 1040.71 253 1042.5 253 1040.71 246.312 1040.71 242.969 1042.3 249.01C1042.44 249.568 1043.01 249.908 1043.57 249.768 1043.94 249.674 1044.23 249.383 1044.32 249.01L1045.92 242.969 1045.92 261.333 1048 261.333 1048 249.875 1050.08 249.875 1050.08 261.333 1052.17 261.333 1052.17 243.031 1053.75 249.01C1053.75 249.586 1054.22 250.052 1054.79 250.052 1055.37 250.052 1055.83 249.586 1055.83 249.01L1057.38 243.031 1057.38 246.312 1055.58 253 1057.38 253 1057.38 261.333 1059.46 261.333 1059.46 253 1061.54 253 1061.54 261.333 1063.62 261.333 1063.62 253 1065.42 253 1063.62 246.312 1063.62 242.969 1065.22 249.01C1065.34 249.478 1065.78 249.798 1066.26 249.781L1066.53 249.781C1067.08 249.622 1067.4 249.044 1067.24 248.492 1067.24 248.488 1067.24 248.483 1067.24 248.479Z" fill="#532CE2"/></g></g></g></g></svg>