<svg width="1280" height="720" xmlns="http://www.w3.org/2000/svg" xmlns:xlink="http://www.w3.org/1999/xlink" overflow="hidden"><g><rect x="0" y="0" width="1280" height="720" fill="#191919"/><path d="M694 258.026C694 245.309 704.309 235 717.026 235L803.974 235C816.691 235 827 245.309 827 258.026L827 378.974C827 391.691 816.691 402 803.974 402L717.026 402C704.309 402 694 391.691 694 378.974Z" stroke="#526590" stroke-width="2" stroke-miterlimit="8" stroke-dasharray="2 2" fill="#251F35" fill-rule="evenodd"/><path d="M713 264.015C713 259.036 717.036 255 722.015 255L803.985 255C808.964 255 813 259.036 813 264.015L813 299.985C813 304.964 808.964 309 803.985 309L722.015 309C717.036 309 713 304.964 713 299.985Z" stroke="#7C7C7C" stroke-width="2" stroke-miterlimit="8" stroke-dasharray="8 6" fill="none" fill-rule="evenodd"/><path d="M0.00219416-0.333326 229.414 1.1768 229.409 1.84346-0.00219416 0.333326ZM228.105-2.49856 236.078 1.55402 228.052 5.50127Z" fill="#8497B0" transform="matrix(1 0 0 -1 233.5 422.054)"/><path d="M170.5 415.857C170.5 408.48 176.48 402.5 183.857 402.5L220.143 402.5C227.52 402.5 233.5 408.48 233.5 415.857L233.5 428.143C233.5 435.52 227.52 441.5 220.143 441.5L183.857 441.5C176.48 441.5 170.5 435.52 170.5 428.143Z" stroke="#B4C7E7" stroke-width="1.33333" stroke-miterlimit="8" fill="#BF9000" fill-rule="evenodd"/><text fill="#FFFFFF" font-family="DengXian,DengXian_MSFontService,sans-serif" font-weight="700" font-size="13.3333" transform="translate(187.168 426)">Mint</text><path d="M263.5 415.515C263.5 408.327 269.327 402.5 276.515 402.5L328.485 402.5C335.673 402.5 341.5 408.327 341.5 415.515L341.5 427.485C341.5 434.673 335.673 440.5 328.485 440.5L276.515 440.5C269.327 440.5 263.5 434.673 263.5 427.485Z" stroke="#B3B3B3" stroke-width="1.33333" stroke-miterlimit="8" fill="#561043" fill-rule="evenodd"/><text fill="#FFFFFF" font-family="DengXian,DengXian_MSFontService,sans-serif" font-weight="700" font-size="13.3333" transform="translate(291.279 417)">Sell</text><text fill="#FFFFFF" font-family="DengXian,DengXian_MSFontService,sans-serif" font-weight="700" font-size="13.3333" transform="translate(278.366 433)">Auction</text><path d="M469 414.015C469 406.827 474.827 401 482.015 401L514.985 401C522.173 401 528 406.827 528 414.015L528 425.985C528 433.173 522.173 439 514.985 439L482.015 439C474.827 439 469 433.173 469 425.985Z" fill="#333F50" fill-rule="evenodd"/><text fill="#FFFFFF" font-family="DengXian,DengXian_MSFontService,sans-serif" font-weight="400" font-size="13.3333" transform="translate(486.287 424)">Paid</text><path d="M713.5 512.515C713.5 505.327 719.327 499.5 726.515 499.5L796.485 499.5C803.673 499.5 809.5 505.327 809.5 512.515L809.5 524.485C809.5 531.673 803.673 537.5 796.485 537.5L726.515 537.5C719.327 537.5 713.5 531.673 713.5 524.485Z" stroke="#B3B3B3" stroke-width="1.33333" stroke-miterlimit="8" fill="#7030A0" fill-rule="evenodd"/><text fill="#FFFFFF" font-family="DengXian,DengXian_MSFontService,sans-serif" font-weight="700" font-size="13.3333" transform="translate(731.434 514)">Complete</text><text fill="#FFFFFF" font-family="DengXian,DengXian_MSFontService,sans-serif" font-weight="700" font-size="13.3333" transform="translate(743.267 530)">Order</text><path d="M538.5 312.857C538.5 305.48 544.48 299.5 551.857 299.5L618.143 299.5C625.52 299.5 631.5 305.48 631.5 312.857L631.5 325.143C631.5 332.52 625.52 338.5 618.143 338.5L551.857 338.5C544.48 338.5 538.5 332.52 538.5 325.143Z" stroke="#B3B3B3" stroke-width="1.33333" stroke-miterlimit="8" fill="#843C0C" fill-rule="evenodd"/><text fill="#FFFFFF" font-family="DengXian,DengXian_MSFontService,sans-serif" font-weight="700" font-size="13.3333" transform="translate(560.196 314)">Request</text><text fill="#FFFFFF" font-family="DengXian,DengXian_MSFontService,sans-serif" font-weight="700" font-size="13.3333" transform="translate(562.782 330)">Refund</text><path d="M873.5 512.515C873.5 505.327 879.327 499.5 886.515 499.5L977.485 499.5C984.673 499.5 990.5 505.327 990.5 512.515L990.5 524.485C990.5 531.673 984.673 537.5 977.485 537.5L886.515 537.5C879.327 537.5 873.5 531.673 873.5 524.485Z" stroke="#ADB9CA" stroke-width="1.33333" stroke-miterlimit="8" fill="#2D3049" fill-rule="evenodd"/><text fill="#FFFFFF" font-family="DengXian,DengXian_MSFontService,sans-serif" font-weight="400" font-size="13.3333" transform="translate(890.411 514)">Confidentiality</text><text fill="#FFFFFF" font-family="DengXian,DengXian_MSFontService,sans-serif" font-weight="400" font-size="13.3333" transform="translate(922.744 530)">fee</text><path d="M1045.5 361.515C1045.5 354.327 1051.33 348.5 1058.51 348.5L1105.49 348.5C1112.67 348.5 1118.5 354.327 1118.5 361.515L1118.5 373.485C1118.5 380.673 1112.67 386.5 1105.49 386.5L1058.51 386.5C1051.33 386.5 1045.5 380.673 1045.5 373.485Z" stroke="#B3B3B3" stroke-width="1.33333" stroke-miterlimit="8" fill="#00B050" fill-rule="evenodd"/><text fill="#FFFFFF" font-family="DengXian,DengXian_MSFontService,sans-serif" font-weight="700" font-size="13.3333" transform="translate(1059.58 371)">Publish</text><text fill="#FFFFFF" font-family="DengXian,DengXian_MSFontService,sans-serif" font-weight="400" font-size="14" transform="translate(279.504 227)">Minter</text><text fill="#FFFFFF" font-family="DengXian,DengXian_MSFontService,sans-serif" font-weight="400" font-size="14" transform="translate(914.402 439)">Buyer</text><text fill="#FFFFFF" font-family="DengXian,DengXian_MSFontService,sans-serif" font-weight="400" font-size="14" transform="translate(568.219 175)">Buyer</text><path d="M827.5 319.167 936.831 319.167 936.831 367.622 936.497 367.289 1038.83 367.289 1038.83 367.956 936.164 367.956 936.164 319.5 936.497 319.833 827.5 319.833ZM1037.49 363.622 1045.49 367.622 1037.49 371.622Z" fill="#8497B0"/><text fill="#FFFFFF" font-family="DengXian,DengXian_MSFontService,sans-serif" font-weight="400" font-size="14" transform="translate(728.754 596)">Minter</text><text fill="#FFFFFF" font-family="DengXian,DengXian_MSFontService,sans-serif" font-weight="400" font-size="14" transform="translate(728.754 613)">Completer</text><path d="M499.167 401.138 499.167 318.167 532.38 318.167 532.38 318.833 499.5 318.833 499.833 318.5 499.833 401.138ZM531.046 314.5 539.046 318.5 531.046 322.5Z" fill="#8497B0"/><text fill="#FFFFFF" font-family="DengXian,DengXian_MSFontService,sans-serif" font-weight="400" font-size="14" transform="translate(740.54 176)">Minter</text><text fill="#FFFFFF" font-family="DengXian,DengXian_MSFontService,sans-serif" font-weight="400" font-size="14" transform="translate(181.856 225)">Minter</text><path d="M301.5 236.5 301.779 386.241" stroke="#7C7C7C" stroke-width="0.666667" stroke-miterlimit="8" stroke-dasharray="2.66667 2" fill="none" fill-rule="evenodd"/><path d="M585.5 184.5 586.674 289.709" stroke="#7C7C7C" stroke-width="0.666667" stroke-miterlimit="8" stroke-dasharray="2.66667 2" fill="none" fill-rule="evenodd"/><path d="M761.5 461.5 761.61 499.714" stroke="#7C7C7C" stroke-width="0.666667" stroke-miterlimit="8" stroke-dasharray="2.66667 2" fill="none" fill-rule="evenodd"/><path d="M932.5 448.5 932.5 499.014" stroke="#7C7C7C" stroke-width="0.666667" stroke-miterlimit="8" stroke-dasharray="2.66667 2" fill="none" fill-rule="evenodd"/><path d="M204.5 233.5 204.605 383.241" stroke="#7C7C7C" stroke-width="0.666667" stroke-miterlimit="8" stroke-dasharray="2.66667 2" fill="none" fill-rule="evenodd"/><text fill="#FFFFFF" font-family="DengXian,DengXian_MSFontService,sans-serif" font-weight="400" font-size="14" transform="translate(1064.48 225)">Buyer</text><path d="M1082.5 233.5 1082.5 329.493" stroke="#7C7C7C" stroke-width="0.666667" stroke-miterlimit="8" stroke-dasharray="2.66667 2" fill="none" fill-rule="evenodd"/><path d="M631.5 318.167 663.085 318.167 663.085 318.919 662.752 318.586 687.337 318.586 687.337 319.253 662.418 319.253 662.418 318.5 662.752 318.833 631.5 318.833ZM686.003 314.919 694.003 318.919 686.003 322.919Z" fill="#8497B0"/><path d="M0 0 0.204304 67.2207" stroke="#7C7C7C" stroke-width="0.666667" stroke-miterlimit="8" stroke-dasharray="2.66667 2" fill="none" fill-rule="evenodd" transform="matrix(-1 0 0 1 760.704 185.5)"/><text fill="#FFFFFF" font-family="DengXian,DengXian_MSFontService,sans-serif" font-weight="400" font-size="14" transform="translate(743.934 452)">Buyer</text><path d="M370.5 415.515C370.5 408.327 376.327 402.5 383.515 402.5L417.485 402.5C424.673 402.5 430.5 408.327 430.5 415.515L430.5 427.485C430.5 434.673 424.673 440.5 417.485 440.5L383.515 440.5C376.327 440.5 370.5 434.673 370.5 427.485Z" stroke="#B3B3B3" stroke-width="1.33333" stroke-miterlimit="8" fill="#7F6000" fill-rule="evenodd"/><text fill="#FFFFFF" font-family="DengXian,DengXian_MSFontService,sans-serif" font-weight="700" font-size="13.3333" transform="translate(388.851 417)">Buy</text><text fill="#FFFFFF" font-family="DengXian,DengXian_MSFontService,sans-serif" font-weight="700" font-size="13.3333" transform="translate(390.437 433)">Bid</text><text fill="#FFFFFF" font-family="DengXian,DengXian_MSFontService,sans-serif" font-weight="400" font-size="14" transform="translate(384.901 227)">Buyer</text><path d="M402.5 236.5 402.5 383.068" stroke="#7C7C7C" stroke-width="0.666667" stroke-miterlimit="8" stroke-dasharray="2.66667 2" fill="none" fill-rule="evenodd"/><path d="M0-0.333333 79.059-0.333333 79.059 207.831 78.3923 207.831 78.3923 0 78.7257 0.333333 0 0.333333ZM82.7257 206.498 78.7257 214.498 74.7257 206.498Z" fill="#8497B0" transform="matrix(1.83697e-16 1 1 -1.83697e-16 499.5 439.5)"/><path d="M0-0.333333 92.0413-0.333333 92.0413 125.356 91.3746 125.356 91.3746 0 91.7079 0.333333 0 0.333333ZM95.7079 124.022 91.7079 132.022 87.7079 124.022Z" fill="#8497B0" transform="matrix(1 0 0 -1 990.5 518.523)"/><path d="M809.5 518.167 867.453 518.167 867.453 518.833 809.5 518.833ZM866.119 514.5 874.119 518.5 866.119 522.5Z" fill="#8497B0"/><text fill="#FFFFFF" font-family="DengXian,DengXian_MSFontService,sans-serif" font-weight="400" font-size="14" transform="translate(282.764 541)">Seller</text><path d="M0 0 0.64105 69.7024" stroke="#7C7C7C" stroke-width="0.666667" stroke-miterlimit="8" stroke-dasharray="2.66667 2" fill="none" fill-rule="evenodd" transform="matrix(-1 0 0 1 302.141 440.5)"/><text fill="#FFFFFF" font-family="DengXian,DengXian_MSFontService,sans-serif" font-weight="400" font-size="14" transform="translate(869.339 178)">DAO</text><path d="M0 0 71.2524 0 71.2524 94.8426" stroke="#7C7C7C" stroke-width="0.666667" stroke-miterlimit="8" stroke-dasharray="2.66667 2" fill="none" fill-rule="evenodd" transform="matrix(1 0 0 -1 813.5 282.343)"/><path d="M0 0 0.133753 48.9842" stroke="#7C7C7C" stroke-width="0.666667" stroke-miterlimit="8" stroke-dasharray="2.66667 2" fill="none" fill-rule="evenodd" transform="matrix(-1 0 0 1 761.634 385.5)"/><path d="M0 0 0.110236 33.7175" stroke="#7C7C7C" stroke-width="0.666667" stroke-miterlimit="8" stroke-dasharray="2.66667 2" fill="none" fill-rule="evenodd" transform="matrix(-1 0 0 1 761.61 537.5)"/><path d="M252.5 526.861C252.5 517.825 259.825 510.5 268.861 510.5L335.139 510.5C344.175 510.5 351.5 517.825 351.5 526.861L351.5 592.139C351.5 601.175 344.175 608.5 335.139 608.5L268.861 608.5C259.825 608.5 252.5 601.175 252.5 592.139Z" stroke="#7C7C7C" stroke-width="1.33333" stroke-miterlimit="8" stroke-dasharray="5.33333 4" fill="none" fill-rule="evenodd"/><text fill="#7C7C7C" font-family="DengXian,DengXian_MSFontService,sans-serif" font-weight="400" font-size="14" transform="translate(269.875 580)">Out of the</text><text fill="#7C7C7C" font-family="DengXian,DengXian_MSFontService,sans-serif" font-weight="400" font-size="14" transform="translate(269.875 597)">deadline</text><path d="M708.5 587.861C708.5 578.825 715.825 571.5 724.861 571.5L798.139 571.5C807.175 571.5 814.5 578.825 814.5 587.861L814.5 653.139C814.5 662.175 807.175 669.5 798.139 669.5L724.861 669.5C715.825 669.5 708.5 662.175 708.5 653.139Z" stroke="#7C7C7C" stroke-width="1.33333" stroke-miterlimit="8" stroke-dasharray="5.33333 4" fill="none" fill-rule="evenodd"/><text fill="#7C7C7C" font-family="DengXian,DengXian_MSFontService,sans-serif" font-weight="400" font-size="14" transform="translate(729.757 641)">Out of the</text><text fill="#7C7C7C" font-family="DengXian,DengXian_MSFontService,sans-serif" font-weight="400" font-size="14" transform="translate(729.757 658)">deadline</text><path d="M164.5 517.857C164.5 510.48 170.48 504.5 177.857 504.5L225.143 504.5C232.52 504.5 238.5 510.48 238.5 517.857L238.5 530.143C238.5 537.52 232.52 543.5 225.143 543.5L177.857 543.5C170.48 543.5 164.5 537.52 164.5 530.143Z" stroke="#B3B3B3" stroke-width="1.33333" stroke-miterlimit="8" fill="#00B050" fill-rule="evenodd"/><text fill="#FFFFFF" font-family="DengXian,DengXian_MSFontService,sans-serif" font-weight="700" font-size="13.3333" transform="translate(178.797 527)">Publish</text><path d="M0.333321-0.00282131 0.814533 56.8496 0.14789 56.8552-0.333321 0.00282131ZM4.46978 55.4853 0.537638 63.5188-3.52993 55.553Z" fill="#8497B0" transform="matrix(-1 0 0 1 202.038 441.5)"/><text fill="#FFFFFF" font-family="DengXian,DengXian_MSFontService,sans-serif" font-weight="700" font-size="24" transform="translate(528.083 56)">Roles Permission</text><path d="M723.5 371.5C723.5 363.768 729.768 357.5 737.5 357.5L785.5 357.5C793.232 357.5 799.5 363.768 799.5 371.5L799.5 371.5C799.5 379.232 793.232 385.5 785.5 385.5L737.5 385.5C729.768 385.5 723.5 379.232 723.5 371.5Z" stroke="#8497B0" stroke-width="1.33333" stroke-miterlimit="8" fill="#222A35" fill-rule="evenodd"/><text fill="#FFFFFF" font-family="Calibri,Calibri_MSFontService,sans-serif" font-weight="400" font-size="14.6667" transform="translate(741.317 376)">Cancel</text><path d="M725.5 258C725.5 250.544 731.544 244.5 739 244.5L785 244.5C792.456 244.5 798.5 250.544 798.5 258L798.5 258C798.5 265.456 792.456 271.5 785 271.5L739 271.5C731.544 271.5 725.5 265.456 725.5 258Z" stroke="#8497B0" stroke-width="1.33333" stroke-miterlimit="8" fill="#222A35" fill-rule="evenodd"/><text fill="#FFFFFF" font-family="Calibri,Calibri_MSFontService,sans-serif" font-weight="400" font-size="14.6667" transform="translate(744.1 263)">Agree</text><path d="M727.5 310.5C727.5 302.768 733.768 296.5 741.5 296.5L785.5 296.5C793.232 296.5 799.5 302.768 799.5 310.5L799.5 310.5C799.5 318.232 793.232 324.5 785.5 324.5L741.5 324.5C733.768 324.5 727.5 318.232 727.5 310.5Z" stroke="#8497B0" stroke-width="1.33333" stroke-miterlimit="8" fill="#222A35" fill-rule="evenodd"/><text fill="#FFFFFF" font-family="Calibri,Calibri_MSFontService,sans-serif" font-weight="400" font-size="14.6667" transform="translate(742.718 315)">Refuse</text></g></svg>