<svg width="1280" height="720" xmlns="http://www.w3.org/2000/svg" xmlns:xlink="http://www.w3.org/1999/xlink" overflow="hidden"><g><rect x="0" y="0" width="1280" height="720" fill="#191919"/><path d="M535.5 332.785C535.5 319.925 545.925 309.5 558.785 309.5L679.215 309.5C692.075 309.5 702.5 319.925 702.5 332.785L702.5 632.215C702.5 645.075 692.075 655.5 679.215 655.5L558.785 655.5C545.925 655.5 535.5 645.075 535.5 632.215Z" stroke="#8497B0" stroke-width="1.33333" stroke-miterlimit="8" fill="#1E1D37" fill-rule="evenodd"/><text fill="#FFFFFF" font-family="DengXian,DengXian_MSFontService,sans-serif" font-weight="700" font-size="24" transform="translate(557.186 68)">Symbol Process</text><path d="M559.5 364.5C559.5 360.634 562.634 357.5 566.5 357.5L668.5 357.5C672.366 357.5 675.5 360.634 675.5 364.5L675.5 392.5C675.5 396.366 672.366 399.5 668.5 399.5L566.5 399.5C562.634 399.5 559.5 396.366 559.5 392.5Z" stroke="#8FAADC" stroke-width="1.33333" stroke-miterlimit="8" fill="#392E62" fill-rule="evenodd"/><text fill="#FFFFFF" font-family="DengXian,DengXian_MSFontService,sans-serif" font-weight="400" font-size="18.6667" transform="translate(585.654 384)">Storage</text><path d="M1148 368C1148 357.507 1156.73 349 1167.5 349 1178.27 349 1187 357.507 1187 368 1187 378.493 1178.27 387 1167.5 387 1156.73 387 1148 378.493 1148 368Z" stroke="#C55A11" stroke-width="4" stroke-miterlimit="8" fill="#FFC000" fill-rule="evenodd"/><text fill="#843C0C" font-family="DengXian,DengXian_MSFontService,sans-serif" font-weight="400" font-size="26.6667" transform="translate(1160.72 377)">$</text><path d="M3.90687e-07-0.333333 77.5746-0.333242 77.5746 0.333424-3.90687e-07 0.333333ZM76.2413-6.66658 89.5746 0.000104987 76.2412 6.66676Z" fill="#8497B0" transform="matrix(-1 0 0 1 1149.07 368.5)"/><path d="M369.5 247.667C369.5 244.261 372.261 241.5 375.667 241.5L474.333 241.5C477.739 241.5 480.5 244.261 480.5 247.667L480.5 272.333C480.5 275.739 477.739 278.5 474.333 278.5L375.667 278.5C372.261 278.5 369.5 275.739 369.5 272.333Z" stroke="#8497B0" stroke-width="1.33333" stroke-miterlimit="8" fill="#26223E" fill-rule="evenodd"/><text fill="#FFFFFF" font-family="DengXian,DengXian_MSFontService,sans-serif" font-weight="400" font-size="16" transform="translate(382.341 265)">Evidence file</text><path d="M328.5 378.167 553.221 378.167 553.221 378.833 328.5 378.833ZM551.888 374.5 559.888 378.5 551.888 382.5Z" fill="#8497B0"/><path d="M389.5 361.5C389.5 354.32 395.32 348.5 402.5 348.5L454.5 348.5C461.68 348.5 467.5 354.32 467.5 361.5L467.5 361.5C467.5 368.68 461.68 374.5 454.5 374.5L402.5 374.5C395.32 374.5 389.5 368.68 389.5 361.5Z" stroke="#8497B0" stroke-width="1.33333" stroke-miterlimit="8" fill="none" fill-rule="evenodd"/><text fill="#AFABAB" font-family="DengXian,DengXian_MSFontService,sans-serif" font-weight="400" font-size="14.6667" transform="translate(413.672 366)">Mint</text><text fill="#FFFFFF" font-family="DengXian,DengXian_MSFontService,sans-serif" font-weight="400" font-size="14.6667" transform="translate(167.213 365)">reward</text><text fill="#FFFFFF" font-family="Microsoft YaHei,Microsoft YaHei_MSFontService,sans-serif" font-weight="400" font-size="18.6667" transform="translate(569.796 340)">Truth Box</text><path d="M113 378C113 367.507 121.507 359 132 359 142.493 359 151 367.507 151 378 151 388.493 142.493 397 132 397 121.507 397 113 388.493 113 378Z" stroke="#C55A11" stroke-width="4" stroke-miterlimit="8" fill="#FFC000" fill-rule="evenodd"/><text fill="#843C0C" font-family="DengXian,DengXian_MSFontService,sans-serif" font-weight="400" font-size="26.6667" transform="translate(124.872 387)">$</text><path d="M559.5 444.667C559.5 440.709 562.709 437.5 566.667 437.5L668.333 437.5C672.291 437.5 675.5 440.709 675.5 444.667L675.5 473.333C675.5 477.291 672.291 480.5 668.333 480.5L566.667 480.5C562.709 480.5 559.5 477.291 559.5 473.333Z" stroke="#8FAADC" stroke-width="1.33333" stroke-miterlimit="8" fill="#392E62" fill-rule="evenodd"/><text fill="#FFFFFF" font-family="DengXian,DengXian_MSFontService,sans-serif" font-weight="400" font-size="18.6667" transform="translate(578.654 464)">Exchange</text><path d="M559.5 520.667C559.5 516.709 562.709 513.5 566.667 513.5L668.333 513.5C672.291 513.5 675.5 516.709 675.5 520.667L675.5 549.333C675.5 553.291 672.291 556.5 668.333 556.5L566.667 556.5C562.709 556.5 559.5 553.291 559.5 549.333Z" stroke="#8FAADC" stroke-width="1.33333" stroke-miterlimit="8" fill="#392E62" fill-rule="evenodd"/><text fill="#F2F2F2" font-family="DengXian,DengXian_MSFontService,sans-serif" font-weight="400" font-size="18.6667" transform="translate(586.321 540)">Secrecy</text><path d="M227.5 364.5C227.5 360.634 230.634 357.5 234.5 357.5L321.5 357.5C325.366 357.5 328.5 360.634 328.5 364.5L328.5 392.5C328.5 396.366 325.366 399.5 321.5 399.5L234.5 399.5C230.634 399.5 227.5 396.366 227.5 392.5Z" stroke="#8497B0" stroke-width="1.33333" stroke-miterlimit="8" fill="#7030A0" fill-rule="evenodd"/><text fill="#FFFFFF" font-family="DengXian,DengXian_MSFontService,sans-serif" font-weight="400" font-size="21.3333" transform="translate(247.335 385)">Minter</text><path d="M958.5 348.5C958.5 342.977 962.977 338.5 968.5 338.5L1049.5 338.5C1055.02 338.5 1059.5 342.977 1059.5 348.5L1059.5 388.5C1059.5 394.023 1055.02 398.5 1049.5 398.5L968.5 398.5C962.977 398.5 958.5 394.023 958.5 388.5Z" stroke="#8497B0" stroke-width="1.33333" stroke-miterlimit="8" fill="#4C1452" fill-rule="evenodd"/><text fill="#FFFFFF" font-family="DengXian,DengXian_MSFontService,sans-serif" font-weight="400" font-size="16" transform="translate(988.948 364)">Buyer</text><text fill="#FFFFFF" font-family="DengXian,DengXian_MSFontService,sans-serif" font-weight="400" font-size="16" transform="translate(975.615 383)">(Criminal)</text><path d="M928.5 614.5C928.5 610.634 931.634 607.5 935.5 607.5L1021.5 607.5C1025.37 607.5 1028.5 610.634 1028.5 614.5L1028.5 642.5C1028.5 646.366 1025.37 649.5 1021.5 649.5L935.5 649.5C931.634 649.5 928.5 646.366 928.5 642.5Z" stroke="#8497B0" stroke-width="1.33333" stroke-miterlimit="8" fill="#4B2DCD" fill-rule="evenodd"/><text fill="#FFFFFF" font-family="DengXian,DengXian_MSFontService,sans-serif" font-weight="400" font-size="21.3333" transform="translate(955.814 635)">DAO</text><path d="M617.833 399.5 617.833 430.527 617.167 430.527 617.167 399.5ZM621.5 429.194 617.5 437.194 613.5 429.194Z" fill="#8497B0"/><path d="M617.833 480.5 617.833 507.498 617.167 507.498 617.167 480.5ZM621.5 506.164 617.5 514.164 613.5 506.164Z" fill="#8497B0"/><path d="M98 348.5C98 341.597 103.597 336 110.5 336L326.5 336C333.403 336 339 341.597 339 348.5L339 398.5C339 405.403 333.403 411 326.5 411L110.5 411C103.597 411 98 405.403 98 398.5Z" stroke="#645B7F" stroke-width="2" stroke-miterlimit="8" stroke-dasharray="8 6" fill="none" fill-rule="evenodd"/><path d="M4.61894e-07-0.333333 69.0988-0.333238 69.0988 0.333429-4.61894e-07 0.333333ZM67.7655-3.99991 75.7655 0.000104987 67.7654 4.00009Z" fill="#8497B0" transform="matrix(-1 0 0 1 227.266 378.5)"/><path d="M939 330.834C939 320.984 946.984 313 956.834 313L1175.17 313C1185.02 313 1193 320.984 1193 330.834L1193 402.166C1193 412.016 1185.02 420 1175.17 420L956.834 420C946.984 420 939 412.016 939 402.166Z" stroke="#645B7F" stroke-width="2" stroke-miterlimit="8" stroke-dasharray="8 6" fill="none" fill-rule="evenodd"/><path d="M559.5 595.667C559.5 591.709 562.709 588.5 566.667 588.5L668.333 588.5C672.291 588.5 675.5 591.709 675.5 595.667L675.5 624.333C675.5 628.291 672.291 631.5 668.333 631.5L566.667 631.5C562.709 631.5 559.5 628.291 559.5 624.333Z" stroke="#8FAADC" stroke-width="1.33333" stroke-miterlimit="8" fill="#392E62" fill-rule="evenodd"/><text fill="#F2F2F2" font-family="DengXian,DengXian_MSFontService,sans-serif" font-weight="400" font-size="18.6667" transform="translate(587.987 615)">Publish</text><path d="M617.833 556.5 617.833 582.248 617.167 582.248 617.167 556.5ZM621.5 580.915 617.5 588.915 613.5 580.915Z" fill="#8497B0"/><path d="M6.66666-0.333333 63.9803-0.333333 63.9803 90.3804 63.647 90.047 276.863 90.047 276.863 90.7137 63.3137 90.7137 63.3137 0 63.647 0.333333 6.66666 0.333333ZM8 4 0 0 8-4ZM275.53 86.3804 283.53 90.3804 275.53 94.3804Z" fill="#8497B0" transform="matrix(-1 1.22465e-16 1.22465e-16 1 959.03 368.5)"/><path d="M1009.77 398.5 1009.77 535.743 682.166 535.743 682.166 535.077 1009.44 535.077 1009.1 535.41 1009.1 398.5ZM683.5 539.41 675.5 535.41 683.5 531.41Z" fill="#8497B0"/><path d="M6.66666-0.333333 59.3053-0.333333 59.3053 275.128 58.6386 275.128 58.6386 0 58.972 0.333333 6.66666 0.333333ZM8 4 0 0 8-4ZM62.972 273.795 58.972 281.795 54.972 273.795Z" fill="#8497B0" transform="matrix(1.83697e-16 1 1 -1.83697e-16 277.5 399.5)"/><path d="M6.66667-0.333333 43.0012-0.333333 43.0012 268.828 42.3345 268.828 42.3345 0 42.6678 0.333333 6.66667 0.333333ZM8 4 0 0 8-4ZM46.6678 267.495 42.6678 275.495 38.6678 267.495Z" fill="#8497B0" transform="matrix(-1.83697e-16 -1 -1 1.83697e-16 977.995 607.168)"/><path d="M816 151.167C816 146.656 819.656 143 824.167 143L910.833 143C915.344 143 919 146.656 919 151.167L919 183.833C919 188.344 915.344 192 910.833 192L824.167 192C819.656 192 816 188.344 816 183.833Z" stroke="#843C0C" stroke-width="2" stroke-miterlimit="8" stroke-dasharray="8 6" fill="none" fill-rule="evenodd"/><text fill="#C00000" font-family="DengXian,DengXian_MSFontService,sans-serif" font-weight="400" font-size="21.3333" transform="translate(840.538 175)">Crime</text><path d="M362.5 436.5C362.5 429.32 368.32 423.5 375.5 423.5L467.5 423.5C474.68 423.5 480.5 429.32 480.5 436.5L480.5 436.5C480.5 443.68 474.68 449.5 467.5 449.5L375.5 449.5C368.32 449.5 362.5 443.68 362.5 436.5Z" stroke="#8497B0" stroke-width="1.33333" stroke-miterlimit="8" fill="none" fill-rule="evenodd"/><text fill="#AFABAB" font-family="DengXian,DengXian_MSFontService,sans-serif" font-weight="400" font-size="14.6667" transform="translate(382.636 441)">Sell, Auction</text><path d="M727.5 437.5C727.5 430.32 733.32 424.5 740.5 424.5L863.5 424.5C870.68 424.5 876.5 430.32 876.5 437.5L876.5 437.5C876.5 444.68 870.68 450.5 863.5 450.5L740.5 450.5C733.32 450.5 727.5 444.68 727.5 437.5Z" stroke="#8497B0" stroke-width="1.33333" stroke-miterlimit="8" fill="none" fill-rule="evenodd"/><text fill="#AFABAB" font-family="DengXian,DengXian_MSFontService,sans-serif" font-weight="400" font-size="14.6667" transform="translate(750.412 442)">Buy, Bid, Refund</text><text fill="#FFFFFF" font-family="DengXian,DengXian_MSFontService,sans-serif" font-weight="400" font-size="14.6667" transform="translate(1099.93 352)">cost</text><path d="M728.5 513.5C728.5 506.32 734.32 500.5 741.5 500.5L894.5 500.5C901.68 500.5 907.5 506.32 907.5 513.5L907.5 513.5C907.5 520.68 901.68 526.5 894.5 526.5L741.5 526.5C734.32 526.5 728.5 520.68 728.5 513.5Z" stroke="#8497B0" stroke-width="1.33333" stroke-miterlimit="8" fill="none" fill-rule="evenodd"/><text fill="#AFABAB" font-family="DengXian,DengXian_MSFontService,sans-serif" font-weight="400" font-size="14.6667" transform="translate(747.701 518)">Pay</text><text fill="#AFABAB" font-family="DengXian,DengXian_MSFontService,sans-serif" font-weight="400" font-size="14.6667" transform="translate(774.034 518)">Confidentiality fee</text><path d="M729.5 585.5C729.5 578.32 735.32 572.5 742.5 572.5L828.5 572.5C835.68 572.5 841.5 578.32 841.5 585.5L841.5 585.5C841.5 592.68 835.68 598.5 828.5 598.5L742.5 598.5C735.32 598.5 729.5 592.68 729.5 585.5Z" stroke="#8497B0" stroke-width="1.33333" stroke-miterlimit="8" fill="none" fill-rule="evenodd"/><text fill="#AFABAB" font-family="Calibri,Calibri_MSFontService,sans-serif" font-weight="400" font-size="14.6667" transform="translate(749.481 590)">G</text><text fill="#AFABAB" font-family="Calibri,Calibri_MSFontService,sans-serif" font-weight="400" font-size="14.6667" transform="translate(758.814 590)">overnance</text><path d="M0-0.333333 171.257-0.333333 171.257 82.5383 170.59 82.5383 170.59 0 170.923 0.333333 0 0.333333ZM174.923 81.2049 170.923 89.2049 166.923 81.2049Z" fill="#8497B0" transform="matrix(-1.83697e-16 -1 -1 1.83697e-16 1008.71 338.423)"/><path d="M0-0.333333 538.998-0.333333 538.998 182.8 538.331 182.8 538.331 0 538.665 0.333333 0 0.333333ZM542.665 181.467 538.665 189.467 534.665 181.467Z" fill="#8497B0" transform="matrix(-1 1.22465e-16 1.22465e-16 1 816.165 167.5)"/><path d="M567.5 232.333C567.5 228.007 571.007 224.5 575.333 224.5L664.667 224.5C668.993 224.5 672.5 228.007 672.5 232.333L672.5 263.667C672.5 267.993 668.993 271.5 664.667 271.5L575.333 271.5C571.007 271.5 567.5 267.993 567.5 263.667Z" stroke="#8497B0" stroke-width="1.33333" stroke-miterlimit="8" fill="#7F6000" fill-rule="evenodd"/><text fill="#FFFFFF" font-family="Microsoft YaHei,Microsoft YaHei_MSFontService,sans-serif" font-weight="400" font-size="16" transform="translate(584.63 253)">IPFS / AR</text><path d="M341 219.667C341 212.119 347.119 206 354.667 206L500.333 206C507.881 206 514 212.119 514 219.667L514 274.333C514 281.881 507.881 288 500.333 288L354.667 288C347.119 288 341 281.881 341 274.333Z" stroke="#645B7F" stroke-width="2" stroke-miterlimit="8" stroke-dasharray="8 6" fill="none" fill-rule="evenodd"/><path d="M514.5 247.167 560.788 247.167 560.788 247.833 514.5 247.833ZM559.455 243.5 567.455 247.5 559.455 251.5Z" fill="#8497B0"/><path d="M310.167 357.167 310.167 247.167 335.321 247.167 335.321 247.833 310.5 247.833 310.833 247.5 310.833 357.167ZM333.988 243.5 341.988 247.5 333.988 251.5Z" fill="#8497B0"/><text fill="#FFFFFF" font-family="DengXian,DengXian_MSFontService,sans-serif" font-weight="400" font-size="14.6667" transform="translate(399.215 226)">Upload</text><path d="M194.5 540C194.5 535.306 198.306 531.5 203 531.5L337 531.5C341.694 531.5 345.5 535.306 345.5 540L345.5 574C345.5 578.694 341.694 582.5 337 582.5L203 582.5C198.306 582.5 194.5 578.694 194.5 574Z" stroke="#8497B0" stroke-width="1.33333" stroke-miterlimit="8" fill="#5736A8" fill-rule="evenodd"/><text fill="#FFFFFF" font-family="DengXian,DengXian_MSFontService,sans-serif" font-weight="400" font-size="14.6667" transform="translate(248.723 553)">Helper</text><text fill="#FFFFFF" font-family="DengXian,DengXian_MSFontService,sans-serif" font-weight="400" font-size="14.6667" transform="translate(211.556 570)">(Seller,</text><text fill="#FFFFFF" font-family="DengXian,DengXian_MSFontService,sans-serif" font-weight="400" font-size="14.6667" transform="translate(257.223 570)">Completer)</text><path d="M6.6667-0.333333 158.661-0.333333 158.661 93.5962 158.328 93.2629 202.695 93.2629 202.695 93.9296 157.995 93.9296 157.995 0 158.328 0.333333 6.6667 0.333333ZM8 4 0 0 8-4ZM201.362 89.5962 209.362 93.5962 201.362 97.5962Z" fill="#8497B0" transform="matrix(1 0 0 -1 345.5 557.096)"/><path d="M369.5 535C369.5 527.544 375.544 521.5 383 521.5L474 521.5C481.456 521.5 487.5 527.544 487.5 535L487.5 535C487.5 542.456 481.456 548.5 474 548.5L383 548.5C375.544 548.5 369.5 542.456 369.5 535Z" stroke="#8497B0" stroke-width="1.33333" stroke-miterlimit="8" fill="none" fill-rule="evenodd"/><text fill="#AFABAB" font-family="DengXian,DengXian_MSFontService,sans-serif" font-weight="400" font-size="14.6667" transform="translate(383.187 540)">Sell,</text><text fill="#AFABAB" font-family="DengXian,DengXian_MSFontService,sans-serif" font-weight="400" font-size="14.6667" transform="translate(412.021 540)">Complete</text></g></svg>